<svg xmlns="http://www.w3.org/2000/svg" viewBox="0 0 117.164 120">
  <g fill="#800b21">
    <path d="M59.562 5.504c0 .081-1.085.162-3.153.312-2.06.209-5.112.525-8.955 1.435-.637.159-1.3.326-1.985.496-.676.203-1.375.414-2.098.63-.179.058-.361.111-.544.175-.18.065-.36.13-.543.198l-1.113.403c-.375.142-.766.256-1.146.418l-1.168.456a7.536 7.536 0 0 0-1.21.448c-.388.199-.772.419-1.163.639-.391.22-.788.436-1.199.632a7.842 7.842 0 0 1-1.276.554c-.425.196-.858.394-1.281.623-.417.235-.836.481-1.256.734-.211.127-.422.254-.634.384l-.318.194-.311.212c-.412.286-.829.573-1.253.865-.209.144-.423.287-.64.427l-.638.45-1.304.896a9.508 9.508 0 0 0-.647.476l-.636.504c-.419.346-.847.69-1.237 1.085a8.626 8.626 0 0 1-1.197 1.174c-.217.179-.443.349-.67.524l-.663.541c-.447.362-.898.729-1.322 1.13a8.49 8.49 0 0 0-1.107 1.387l-.592.669a161.195 161.195 0 0 1-1.749 2.079c-.38.478-.763.962-1.148 1.45-.192.243-.39.483-.58.731l-.553.763c-1.738 1.867-2.845 4.271-4.049 6.637a22.9 22.9 0 0 0-1.076 1.715 34.07 34.07 0 0 0-.865 1.854c-.285.625-.487 1.288-.707 1.949-.214.661-.426 1.326-.579 2.016-1.408 2.477-2.064 5.358-2.153 8.322l-.195 1.086-.102.544-.079.55-.318 2.215a75.769 75.769 0 0 0-.17 2.257l-.031.568.003.573c.006.381.019.763.034 1.145-.047 3.06.227 6.169.614 9.32.262 1.067.533 2.132.788 3.205l.195.804.126.546c.014.045.011.117.023.186.034-.008.089-.017.164-.025l.006.003c.006-.001-.012.01.036-.011l.2-.085c.135-.056.267-.114.403-.165.276-.091.554-.179.832-.261a9.512 9.512 0 0 1 2.716-.737l.711-.05c.238-.018.465-.001.699 0 .46-.004.935.061 1.405.116a9.34 9.34 0 0 1 2.779.888 8.876 8.876 0 0 1 2.357 1.742c.799.822 1.48 1.703 2.102 2.606.079.111.16.223.231.338l.112.172.027.041c.01.014.006.01.011.014l.014.018.102.121.148.161a1.45 1.45 0 0 1 .141-.327l.022-.033.006-.007.037-.06.078-.12c.098-.161.21-.318.324-.473.113-.155.225-.311.343-.463l.38-.445c.589-.757 1.257-1.489 2.051-2.121a8.918 8.918 0 0 1 2.68-1.478c.971-.337 1.975-.504 2.964-.568l.74-.023c.248 0 .505.021.757.032.509.008 1.01.125 1.512.202.246.065.491.14.735.21.122.04.245.072.364.113l.357.142c.233.1.474.184.702.297l.678.352.168.088.161.103.32.206c.215.138.431.269.627.433l.6.467.557.518c.72.713 1.388 1.493 1.912 2.374.068.109.141.214.206.324l.179.341c.115.23.253.45.354.689l.309.713c.109.239.172.491.262.738.161.499.217 1.021.313 1.54l.059.785c.006.132.021.265.021.393l-.009.381-.022.763-.014.381c-.011.127-.03.252-.045.377l-.098.756c-.032.253-.061.506-.126.751-.384 1.99-1.116 3.89-2.089 5.622-.721 1.863-1.733 3.592-2.884 5.206-1.149 1.618-2.464 3.1-3.807 4.548-.315.378-.631.756-.955 1.129l-.994 1.098c-.33.367-.678.719-1.016 1.079l-.511.535-.129.135-.045.044-.093.088c-.121.12-.254.245-.375.372.146.103.3.21.456.315l.118.076.165.104.621.374c.417.245.833.496 1.263.72.832.495 1.665.995 2.538 1.427.856.461 1.747.859 2.63 1.269 1.789.778 3.597 1.527 5.439 2.217l.689.263.701.234 1.399.461c.944.263 1.881.557 2.839.756 1.902.465 3.841.726 5.775.865.972.029 1.931.128 2.895.165l1.442.089 1.439.054c.242.01.481.023.72.03h.72c.48-.005.959-.008 1.439-.01.239-.004.478-.001.717-.014l.715-.051c.476-.036.952-.078 1.425-.126.239.001.481.011.718-.003l.711-.052c.476-.04.949-.089 1.421-.144.474-.047.94-.14 1.405-.231l1.392-.284c.465-.085.918-.22 1.374-.338.456-.12.912-.236 1.368-.356.456-.104.901-.26 1.353-.382a45.15 45.15 0 0 1 1.357-.361c3.557-1.116 7.091-2.351 10.23-4.264 3.19-1.805 6.14-3.9 8.986-6.069.588-.691 1.228-1.307 1.878-1.909.628-.624 1.295-1.203 1.953-1.792.636-.609 1.29-1.2 1.915-1.817.6-.639 1.194-1.284 1.737-1.968 2.397-2.557 4.118-5.582 5.793-8.517.389-.752.758-1.511 1.16-2.25.207-.367.381-.749.564-1.126.184-.377.368-.752.549-1.127l.274-.565.242-.575c.159-.385.316-.77.468-1.156.321-.764.549-1.562.765-2.355 1.079-3.111 1.606-6.304 2.283-9.405.034-.797.115-1.582.218-2.36.078-.781.157-1.559.253-2.334l.068-.58.04-.581.065-1.159c.016-.386.03-.772.034-1.157a23.306 23.306 0 0 0-.072-1.151l-.028-1.142-.015-.569-.043-.568c-.058-.755-.115-1.505-.17-2.252l-.27-2.22-.065-.55-.09-.547-.177-1.089c-.127-2.969-1.179-5.707-2.152-8.323-.202-.672-.475-1.314-.742-1.952-.274-.635-.524-1.276-.834-1.886a46.989 46.989 0 0 1-.843-1.852 24.852 24.852 0 0 1-.808-1.843c-1.224-2.362-2.415-4.701-4.051-6.638-.189-.252-.367-.51-.54-.772-.178-.256-.359-.51-.533-.768l-1.028-1.552a18.442 18.442 0 0 0-1.15-1.419 7.875 7.875 0 0 0-.641-.638 7.232 7.232 0 0 0-.73-.543 19.974 19.974 0 0 1-1.203-1.289c-.4-.423-.788-.854-1.179-1.277-.195-.212-.39-.421-.589-.626a14.066 14.066 0 0 0-.633-.569 10.568 10.568 0 0 0-1.353-.997 15.595 15.595 0 0 1-2.005-1.415c-.205-.172-.41-.345-.621-.506l-1.23-.997a22.757 22.757 0 0 0-.611-.485c-.211-.15-.423-.296-.637-.433l-1.271-.834-.313-.205-.321-.19-.637-.375-1.253-.74c-.419-.234-.844-.447-1.256-.668a56.44 56.44 0 0 0-10.426-4.241c-.394-.117-.779-.238-1.16-.345l-1.129-.28c-.742-.175-1.443-.378-2.131-.498l-1.96-.389c-.625-.11-1.222-.186-1.784-.275-.282-.041-.555-.084-.82-.124-.132-.021-.263-.039-.393-.059-.127-.012-.254-.026-.38-.039-.499-.051-.966-.1-1.397-.146-.434-.044-.831-.096-1.195-.124l-.988-.066c-1.179-.084-1.79-.155-1.79-.21 0-.062.754-.104 2.216-.128 1.461-.014 3.627.091 6.43.423a56.548 56.548 0 0 1 10.095 2.348c.98.293 1.957.702 2.984 1.085.516.184 1.021.419 1.542.645.518.23 1.043.46 1.578.697l1.591.795.816.408c.267.148.533.3.805.449l1.645.926c.54.34 1.085.683 1.641 1.031.221.139.446.276.674.412l.671.433c.452.289.907.583 1.368.877.232.147.456.307.673.476.221.168.441.338.656.514.431.355.863.715 1.257 1.13.428.373.869.737 1.318 1.102l.676.551.656.586c.437.394.876.796 1.307 1.211.416.433.819.885 1.21 1.355.245.188.482.384.716.588.227.209.441.432.653.658.425.452.833.929 1.233 1.417.378.504.747 1.025 1.122 1.544.186.258.375.518.563.781.179.268.362.536.548.801 1.557 2.087 2.83 4.441 4.258 6.789.363.586.701 1.195 1.017 1.816.289.634.564 1.281.837 1.933.289.645.509 1.322.772 1.988.26.665.526 1.333.791 2.008.757 2.803 1.542 5.641 2.313 8.586.037.379.084.756.136 1.135l.082.565.063.572c.09.76.202 1.522.317 2.29l.246 2.324.059.586.026.59c.017.393.032.789.039 1.185-.034.396-.06.793-.076 1.19a33.748 33.748 0 0 0-.136 2.392l-.014.601-.035.603c-.045.803-.064 1.614-.101 2.429l-.194 2.452c-.363 3.284-1.312 6.525-2.304 9.784-1.138 3.212-2.375 6.474-4.124 9.544-1.546 3.168-3.518 6.216-5.986 8.891-2.219 2.88-4.892 5.449-7.756 7.83-2.782 2.494-6.014 4.505-9.344 6.356-.842.449-1.698.881-2.568 1.285-.887.368-1.774.742-2.667 1.098-.909.323-1.805.679-2.711 1.023-.456.164-.909.333-1.361.511l-.676.278a15.58 15.58 0 0 1-.678.282c-3.722 1.184-7.628 1.838-11.575 2.268l-1.491.095-.746.048c-.248.012-.499.01-.747.015l-1.498.025-.751.014c-.249 0-.499-.011-.751-.015-.499-.01-1.001-.021-1.504-.029-.501-.019-1.002-.054-1.505-.077-1.006-.03-2.01-.14-3.019-.208-1.984-.448-3.971-.785-5.958-1.222-1-.186-1.983-.444-2.983-.657-.495-.131-.991-.26-1.486-.388l-.744-.195-.736-.224c-1.97-.588-3.867-1.375-5.722-2.223-.918-.447-1.836-.888-2.72-1.387-.903-.472-1.762-1.008-2.633-1.525-.437-.254-.86-.529-1.29-.792l-.642-.401-.082-.051-.129-.088-.261-.177-.52-.355c-.693-.473-1.385-.944-2.075-1.417.554-.612 1.157-1.229 1.733-1.842l.778-.825.495-.533c.327-.358.665-.708.985-1.068l.967-1.076.946-1.087c1.188-1.507 2.417-2.96 3.52-4.483 1.107-1.52 2.12-3.096 2.866-4.77.746-1.67 1.411-3.34 1.805-5.058.064-.213.093-.43.13-.646l.109-.646c.016-.109.037-.217.052-.324l.02-.326.041-.649.019-.326c.001-.107-.01-.209-.014-.313l-.036-.62c-.08-.407-.118-.821-.262-1.208-.063-.194-.1-.397-.184-.584l-.227-.568c-.074-.191-.183-.364-.272-.546l-.137-.272c-.05-.088-.109-.17-.162-.257-.41-.7-.949-1.309-1.521-1.865l-.444-.407-.479-.36c-.153-.129-.327-.228-.496-.335l-.252-.161-.126-.081-.133-.067-.533-.275c-.177-.091-.368-.153-.553-.234l-.276-.117c-.095-.033-.191-.059-.285-.089l-.577-.181c-1.546-.283-3.302-.297-4.801.153a5.92 5.92 0 0 0-2.065 1.093 7.315 7.315 0 0 0-1.566 1.819l-.288.407-.264.429c-.088.143-.178.285-.257.436l-.397.726c-.168.292-.321.621-.48.942l-.484.976-.969 1.985-1.481-2.742-.377-.709-.392-.676-.261-.443c-.059-.106-.126-.205-.189-.305a31.667 31.667 0 0 0-1.566-2.322c-1.15-.994-2.45-1.645-3.96-1.926-.379-.052-.757-.122-1.151-.132-.194-.007-.394-.03-.584-.023l-.567.019a7.129 7.129 0 0 0-2.181.521c-.226.056-.451.117-.676.18-.112.039-.219.084-.327.125l-.163.066c-.016.004-.085.04-.133.063l-.155.078c-.397.231-.772.478-1.149.716-.367.246-.724.499-1.084.749-.046-.054-.068-.198-.099-.307l-.087-.342-.174-.685-.363-1.362a421.9 421.9 0 0 0-.476-1.865c-.268-1.116-.52-2.232-.673-3.358-.412-3.273-.47-6.5-.56-9.666a29.39 29.39 0 0 1-.022-1.186l.005-.591.042-.59c.058-.782.133-1.56.214-2.331l.352-2.291.082-.569.104-.562c.068-.377.133-.751.192-1.126.038-.378.088-.755.147-1.129.071-.371.161-.737.252-1.102.089-.364.186-.726.285-1.087.098-.36.195-.72.322-1.069.236-.705.47-1.403.679-2.104.227-.697.459-1.387.627-2.093.23-.687.505-1.353.769-2.018.268-.663.504-1.335.806-1.973l.867-1.919a69.17 69.17 0 0 1 .975-1.835c.183-.68.476-1.302.794-1.905.159-.301.327-.595.501-.885.089-.144.174-.29.267-.432l.291-.412c.392-.546.799-1.076 1.196-1.605.403-.524.83-1.023 1.21-1.549.196-.258.384-.521.569-.785.19-.26.383-.518.572-.774l1.115-1.549c.396-.492.795-.975 1.214-1.434a13.1 13.1 0 0 1 .648-.664c.232-.203.471-.4.718-.586.347-.51.724-.988 1.127-1.436.419-.43.856-.836 1.3-1.225.223-.194.446-.385.669-.573.231-.18.467-.353.698-.529.465-.346.928-.691 1.373-1.042.452-.344.905-.676 1.336-1.03.214-.177.429-.352.642-.526.211-.179.423-.353.645-.513.436-.329.872-.652 1.312-.957.22-.151.441-.302.665-.441.231-.132.464-.258.7-.375a11.44 11.44 0 0 1 1.259-.921l.325-.205.338-.18c.227-.115.453-.23.676-.345.451-.223.899-.438 1.337-.661.44-.216.879-.421 1.293-.664.447-.177.88-.371 1.3-.573.428-.187.847-.378 1.259-.573l1.219-.577a20.65 20.65 0 0 1 1.222-.484 47.1 47.1 0 0 1 1.179-.5c.388-.165.788-.279 1.174-.412.389-.125.774-.245 1.152-.356l.568-.164c.189-.048.38-.085.568-.127l2.152-.579c.702-.153 1.38-.298 2.033-.438a53.758 53.758 0 0 1 9.113-1.046c2.091-.007 3.176.056 3.176.126Z"/>
    <path d="M59.562 43.063c.005.179-1.337.208-3.647.784-.194.044-.39.11-.596.166-.203.058-.415.113-.629.19-.212.081-.431.164-.657.242a7.848 7.848 0 0 1-.698.249c-.276-.014-.484.179-.704.345-.22.165-.437.342-.757.317a2.944 2.944 0 0 0-.785.352c-.256.144-.499.326-.744.509-.251.175-.528.318-.804.476a2.504 2.504 0 0 0-.76.608c-.159.34-.47.472-.803.606-.324.14-.642.316-.747.724-.441.56-.977 1.042-1.478 1.6-.721.374-.962 1.188-1.357 1.861-.732.466-1.022 1.28-1.165 2.126-.789.538-1.082 1.406-.907 2.37-.242.823-.659 1.647-.588 2.581-.11.896-.122 1.809-.211 2.741.32.937.342 1.845.212 2.84.484.899.554 1.846.678 2.854.034.252.109.491.203.723.101.231.231.449.352.671.116.225.26.436.364.665.104.231.203.465.258.723.449.921 1.084 1.746 1.667 2.614.511.92 1.135 1.845 2.146 2.34.849.667 1.761 1.225 2.579 1.968 1.116.268 1.98.898 2.948 1.496 1.045.355 2.065.929 3.228.942 1.109.273 2.261.164 3.402.326 1.148.111 2.329.104 3.405-.326.53-.224 1.078-.329 1.626-.448.278-.049.548-.122.817-.196a4.03 4.03 0 0 0 .784-.297c.293-.016.563-.099.82-.209.129-.054.254-.113.379-.18.119-.069.237-.144.353-.22l.351-.228.338-.241c.23-.151.462-.293.707-.419.896-.609 1.91-1.097 2.579-1.967.746-.775 1.4-1.595 2.146-2.34.098-.581.417-.972.762-1.365a8.92 8.92 0 0 0 .513-.588c.08-.103.158-.205.226-.315.064-.113.12-.227.166-.346.669-.815.826-1.861 1.177-2.782.093-.489.293-.944.439-1.416l.113-.352c.03-.117.056-.236.078-.357.038-.241.078-.482.048-.728.19-.958.012-1.911.211-2.841a2.44 2.44 0 0 1-.1-.693c-.012-.23.002-.46.017-.693.021-.231.017-.46.005-.69a1.947 1.947 0 0 0-.133-.667c-.135-.891-.383-1.738-.586-2.579a2.12 2.12 0 0 0-.031-.674 3.043 3.043 0 0 0-.234-.602c-.091-.194-.208-.374-.324-.554a8.28 8.28 0 0 1-.318-.54c-.169-.379-.401-.72-.634-1.049-.221-.34-.438-.667-.531-1.078-.412-.667-.732-1.408-1.358-1.861-.261-.267-.403-.634-.596-.961-.183-.333-.443-.595-.88-.639-.301-.192-.486-.504-.707-.777-.227-.263-.462-.52-.844-.554-.368-.051-.617-.249-.856-.461-.234-.217-.443-.471-.709-.623-.259-.165-.513-.32-.773-.458-.256-.144-.505-.285-.758-.403a20.349 20.349 0 0 0-3.134-1.255 24.127 24.127 0 0 0-2.452-.594 76.596 76.596 0 0 0-1.559-.265c-.357-.063-.543-.122-.543-.179-.001-.107.927-.282 2.674-.17.871.067 1.946.208 3.174.538 1.227.327 2.607.841 4.047 1.619.291.151.612.265.926.417.316.141.605.345.82.654.293.199.602.393.917.59.31.207.601.451.832.764.823.243 1.18 1.034 1.686 1.663.555.603.952 1.347 1.564 1.975.327.302.547.687.731 1.096.198.401.357.823.636 1.193.173.929.59 1.739 1.085 2.587.064.977.588 1.845.735 2.844-.195 1.04.165 1.999.312 3.045.138 1.048-.09 2.102-.166 3.178-.223 1.054-.307 2.165-.7 3.219-.174 1.116-.566 2.22-1.273 3.153-.425 1.08-1.129 2.034-1.839 2.976-.602 1.035-1.535 1.827-2.396 2.672-.423.437-.949.764-1.465 1.09-.253.172-.516.327-.757.517a4.788 4.788 0 0 0-.679.646c-1.023.708-2.191 1.182-3.334 1.718-1.195.425-2.426.733-3.666 1.083-1.327-.139-2.549.22-3.864.374-1.306.11-2.613-.073-3.863-.374a15.868 15.868 0 0 1-3.664-1.083c-1.228-.368-2.214-1.192-3.335-1.718a4.19 4.19 0 0 1-.796-.48 8.068 8.068 0 0 1-.714-.587c-.462-.408-.89-.836-1.392-1.186-.964-.738-1.837-1.607-2.395-2.672-.353-.476-.619-1.006-.886-1.525-.139-.254-.267-.513-.423-.755a4.572 4.572 0 0 0-.251-.356 3.712 3.712 0 0 0-.28-.34c-.148-.247-.318-.484-.472-.73-.154-.245-.326-.484-.45-.745a3.852 3.852 0 0 1-.31-.8 2.619 2.619 0 0 1-.041-.878c-.225-.517-.319-1.071-.381-1.619l-.057-.407a5.085 5.085 0 0 0-.261-1.195c.063-.283.08-.553.068-.819a5.177 5.177 0 0 0-.071-.789c-.047-.263-.077-.522-.113-.785a4.221 4.221 0 0 1-.05-.784c.08-1.045.325-2.033.31-3.045a3.89 3.89 0 0 1 .072-.749c.054-.242.127-.48.201-.715.072-.234.168-.461.248-.69.082-.23.147-.461.214-.692.022-.243.09-.474.18-.695.095-.217.217-.423.335-.627.115-.206.242-.406.348-.61.105-.205.179-.422.225-.653.448-.793.819-1.611 1.366-2.29.021-.507.273-.866.59-1.159.32-.291.685-.528.975-.816.575-.565.848-1.431 1.685-1.663.152-.401.428-.669.749-.863.327-.187.673-.335 1-.491.323-.157.577-.399.853-.603.272-.209.549-.407.894-.466.211-.29.513-.415.825-.498.307-.089.616-.151.869-.315.617-.08 1.076-.448 1.6-.587.245-.117.49-.212.733-.28.248-.062.495-.098.738-.114.231-.059.461-.095.678-.136.22-.037.431-.082.637-.107 2.47-.333 3.819-.07 3.813.049Zm0-25.033c0 .148-.766.311-2.146.478-.232.03-.478.077-.742.117-.262.059-.54.122-.837.126-.316-.169-.577.399-.933.143-.337-.045-.67.078-1.019.19-.346.117-.749-.04-1.105.206-.317.447-.852-.279-1.179.267-.391.175-.819.217-1.253.302-.496-.187-.879.199-1.321.355-.544-.242-.971.061-1.377.425-.606-.33-1.089-.127-1.432.48-.481.18-1.044.172-1.48.544-.49.227-.963.511-1.513.635a1.775 1.775 0 0 1-.32.322c-.113.091-.232.17-.359.227-.258.12-.544.169-.865.164-.189.278-.43.441-.701.551-.263.121-.561.184-.865.239-.62.103-.927.804-1.581.877-.272.142-.527.312-.788.48-.131.084-.262.168-.397.247-.133.08-.263.164-.405.235-.598.221-1.239.421-1.586 1.054-.473.447-.933.906-1.572 1.146-.29.701-.906.97-1.553 1.237-.463.484-1.147.729-1.522 1.331-.532.427-.874 1.057-1.484 1.419-.554.421-1.109.848-1.418 1.486-.267.671-.958.958-1.327 1.524-.685.307-.735 1.117-1.236 1.553-.361.547-.922.947-1.143 1.575-.313.565-.583 1.142-1.053 1.586.053.401-.129.65-.357.876-.227.223-.502.421-.605.715-.513.415-.547 1.085-.873 1.584-.091.287-.28.522-.456.761-.164.247-.313.5-.335.807-.272.511-.328 1.101-.709 1.547.042.613-.612.946-.634 1.512-.174.509-.324 1.01-.543 1.48-.574.357-.37.955-.479 1.432-.172.466-.052.991-.423 1.377-.138.447-.42.852-.355 1.321-.048.438-.774.738-.302 1.254.027.426-.564.738-.263 1.179.271.434-.143.749-.208 1.105s-.127.695-.189 1.02c-.223 1.467-.405 2.631-.509 3.43-.124.797-.243 1.228-.355 1.228-.126 0-.232-.532-.32-1.531-.021-.25-.045-.531-.058-.837-.003-.308-.003-.642-.006-1.002l.012-1.166c.022-.414.056-.852.09-1.314.031-.368-.22-.799.1-1.157.071-.393-.076-.844.164-1.24-.304-.496.081-.881.211-1.321.083-.454.311-.885.271-1.395-.113-.533.369-.925.35-1.461.37-.426.442-.947.416-1.522.392-.437.302-1.045.491-1.577.54-.399.512-1.013.595-1.612.081-.601.518-1.061.681-1.65.157-.261.261-.55.368-.84.118-.283.237-.572.406-.836.138-.631.363-1.24.872-1.694.111-.306.267-.59.437-.87.169-.281.353-.553.537-.828.24-.63.722-1.118 1.076-1.695.335-.595 1.09-.889 1.182-1.68.389-.575.905-1.056 1.287-1.654.501-.503 1.005-1.003 1.393-1.619.781-.257 1.098-.936 1.495-1.573.447-.583 1.012-1.043 1.569-1.496.517-.5 1.07-.951 1.619-1.395.478-.529 1.203-.738 1.652-1.289.458-.544 1.222-.658 1.678-1.183.491-.478 1.037-.881 1.693-1.079.139-.088.288-.161.443-.221.157-.059.315-.11.468-.173.306-.121.588-.278.786-.581.512-.396.887-1.067 1.69-.874.248-.202.555-.284.852-.378.302-.081.597-.168.823-.397.359.056.632-.062.884-.223.127-.081.248-.176.374-.258a2.17 2.17 0 0 1 .392-.202c.574-.144 1.151-.228 1.613-.597.468-.359 1.089-.26 1.575-.492.441-.4 1.102-.033 1.523-.418.509-.084.963-.324 1.459-.352.349-.628.941-.215 1.395-.271.461-.037.821-.533 1.322-.212.352-.473.83-.202 1.239-.165.412.045.76-.275 1.157-.102.335-.329.742.066 1.064-.074.355.14.661-.047.969-.023.3-.088.591-.087.869-.003.271.003.525-.001.763.012 1.422.096 2.188.22 2.188.37Zm0 88.3c0-.148.766-.312 2.148-.477.231-.03.476-.078.74-.118.264-.059.54-.122.839-.128.316.169.577-.399.932-.142.337.045.671-.08 1.02-.19.346-.117.748.04 1.104-.206.318-.447.852.279 1.178-.267.391-.176.819-.216 1.255-.301.494.186.879-.202 1.319-.355.544.241.971-.062 1.377-.425.608.329 1.089.125 1.433-.481.48-.18 1.045-.17 1.48-.544.489-.227.963-.51 1.512-.636.099-.125.205-.232.32-.32.115-.092.232-.169.362-.228.256-.118.544-.169.863-.162a1.5 1.5 0 0 1 .701-.551c.265-.121.562-.184.867-.241.619-.102.926-.803 1.581-.874.271-.144.529-.315.788-.483.13-.084.262-.165.395-.245.133-.081.267-.165.406-.238.599-.22 1.237-.419 1.585-1.053.474-.445.935-.907 1.573-1.145.291-.701.905-.97 1.553-1.24.463-.481 1.148-.727 1.523-1.328.53-.429.871-1.058 1.483-1.421.555-.418 1.11-.847 1.419-1.485.265-.671.958-.958 1.327-1.524.686-.305.734-1.116 1.236-1.555.359-.546.921-.946 1.144-1.574.311-.564.581-1.141 1.051-1.588-.052-.401.131-.649.357-.874.227-.223.502-.422.605-.715.515-.415.548-1.086.875-1.584.089-.287.279-.521.456-.763.163-.245.311-.498.332-.806.273-.511.329-1.101.71-1.545-.043-.615.611-.946.634-1.513.174-.507.324-1.012.542-1.48.572-.359.371-.955.48-1.434.17-.463.05-.988.423-1.376.137-.447.42-.852.355-1.32.047-.44.773-.74.301-1.255-.025-.425.564-.737.267-1.181-.273-.433.141-.746.205-1.104l.189-1.02c.223-1.467.406-2.63.51-3.428.123-.799.244-1.23.355-1.23.124 0 .231.533.32 1.534.019.25.046.529.057.836l.005 1.003c-.004.363-.006.751-.011 1.164-.023.414-.056.851-.09 1.316-.031.367.222.799-.099 1.156-.072.395.076.844-.166 1.24.304.498-.078.881-.21 1.321-.085.454-.312.885-.272 1.397.112.532-.369.922-.35 1.46-.372.427-.441.947-.415 1.522-.392.436-.302 1.046-.492 1.577-.538.397-.513 1.013-.594 1.614-.084.598-.52 1.058-.682 1.648-.157.263-.26.548-.366.838-.12.286-.239.573-.41.837-.136.63-.359 1.24-.871 1.692a4.652 4.652 0 0 1-.438.872c-.167.279-.352.553-.535.829-.241.629-.724 1.116-1.078 1.692-.335.598-1.089.891-1.181 1.681-.388.575-.906 1.056-1.287 1.654-.499.503-1.001 1.005-1.392 1.618-.779.258-1.096.937-1.493 1.572-.448.584-1.012 1.045-1.57 1.497-.515.5-1.067.953-1.617 1.394-.48.531-1.205.738-1.652 1.291-.459.546-1.222.657-1.678 1.185-.493.478-1.039.88-1.693 1.079-.14.088-.289.161-.443.221-.158.058-.317.11-.469.17-.307.122-.589.278-.786.583-.51.396-.887 1.067-1.691.873-.248.204-.553.287-.849.379-.302.081-.599.166-.825.396-.358-.054-.631.065-.884.225-.127.08-.248.173-.372.256-.127.08-.254.153-.392.204-.574.144-1.151.228-1.612.597-.47.359-1.089.261-1.577.492-.441.4-1.101.032-1.521.417-.509.085-.963.324-1.459.352-.349.628-.943.216-1.396.273-.46.036-.82.532-1.321.21-.353.473-.831.204-1.241.166-.412-.048-.758.273-1.157.099-.333.329-.74-.065-1.064.076-.353-.14-.659.045-.968.023a1.51 1.51 0 0 1-.868.003c-.273-.004-.527.003-.763-.012-1.423-.095-2.19-.22-2.19-.37ZM20.805 82.402c-.069.032-.296-.254-.675-.829-.394-.561-.932-1.42-1.744-2.412a13.497 13.497 0 0 0-.915-1.012c-.186-.154-.364-.327-.561-.485a6.065 6.065 0 0 1-.298-.242c-.1-.085-.199-.17-.304-.247-.157-.236-.43-.333-.711-.397a2.431 2.431 0 0 1-.4-.142.778.778 0 0 1-.344-.265c-.062-.04-.121-.082-.188-.115a5.651 5.651 0 0 0-.631-.238 11.597 11.597 0 0 0-.459-.085c-.078-.012-.155-.026-.232-.039-.08-.007-.16-.012-.241-.021a3.213 3.213 0 0 1-.479-.074c-.161-.026-.326-.052-.491-.08a2.541 2.541 0 0 0-1.034.014 1.09 1.09 0 0 1-.52.115c-.174-.005-.352-.048-.535-.087a2.019 2.019 0 0 0-.549-.014c-.18.032-.362.077-.511.25-.342.15-.701.231-1.047.379-.177.063-.355.126-.535.192l-.526.235a1.564 1.564 0 0 0-.302.055 2.079 2.079 0 0 0-.273.121 3.15 3.15 0 0 0-.504.331c-.296.284-.586.57-.858.88-.206.076-.415.161-.573.301-.164.135-.313.29-.45.455-.133.168-.226.37-.324.564a6.24 6.24 0 0 0-.133.301c-.036.104-.064.213-.095.322-.884.459-1.21 1.434-1.003 2.407-.045.217-.129.427-.173.65l-.138.668c-.042.227-.041.459-.045.69.001.117.001.232.015.349.019.121.043.241.073.36.06.962.264 1.92.407 2.921.542.91.827 1.857.959 2.944.705.851 1.048 1.856 1.42 2.917.365 1.071 1.376 1.77 1.785 2.869.627.962 1.39 1.852 2.072 2.821.617 1.021 1.26 2.065 2.299 2.784.863.871 1.768 1.713 2.477 2.762 1.119.669 1.865 1.699 2.614 2.757.932.878 1.65 1.988 2.717 2.768.441.484.931.921 1.416 1.368l.459.43a.507.507 0 0 1 .072.155.267.267 0 0 0 .141-.03l.043-.023c.018-.011.016-.001.096-.077l.363-.338c.474-.456.915-.942 1.3-1.48.748-1.096 1.895-1.784 2.716-2.77 1.14-.682 1.676-1.922 2.614-2.756.821-.944 1.821-1.714 2.475-2.763.748-.969 1.451-1.94 2.298-2.783.302-1.256 1.52-1.798 2.073-2.822.834-.828 1.205-1.933 1.785-2.869.437-1.009 1.232-1.842 1.421-2.916.434-.975.536-2.015.958-2.946a2.674 2.674 0 0 1 .073-.751c.042-.243.107-.482.179-.722.118-.477.245-.963.157-1.449l.01-.359c-.001-.118-.012-.231-.015-.346-.019-.228-.016-.458-.043-.682a26.347 26.347 0 0 1-.093-.671c-.025-.224-.09-.44-.126-.66a2.12 2.12 0 0 0 .036-.359 2.44 2.44 0 0 0-.056-.335c-.059-.219-.124-.436-.241-.627-.113-.194-.238-.378-.358-.56-.124-.181-.273-.346-.384-.528a4.916 4.916 0 0 0-.163-.273 8.09 8.09 0 0 0-.205-.246c-.143-.157-.274-.319-.423-.463a4.263 4.263 0 0 1-.422-.451c-.121-.168-.26-.313-.359-.509-.279-.301-.586-.565-.887-.836a4.738 4.738 0 0 0-.764-.463c-.091-.038-.189-.063-.285-.088a1.836 1.836 0 0 1-.496-.307c-.159-.111-.321-.229-.487-.34-.324-.236-.711-.334-1.124-.161-.18-.03-.36-.052-.533-.114-.174-.054-.346-.133-.521-.187-.352-.084-.712-.159-1.061.036-.347.184-.683.17-1.017.161-.166-.01-.335-.036-.502-.045-.164-.001-.327 0-.485.025-.079.014-.158.023-.236.037l-.227.056-.45.106-.426.143-.21.069c-.069.026-.135.059-.201.087l-.443.194-.411.228c-.139.07-.267.155-.391.242l-.37.252c-.467.363-.89.734-1.25 1.119a17.16 17.16 0 0 0-1.695 2.125c-.222.302-.399.583-.562.821l-.411.599c-.226.322-.369.477-.419.452-.096-.051.195-1.017 1.087-2.685.469-.819 1.086-1.834 2.089-2.834a9.028 9.028 0 0 1 1.82-1.398c.717-.411 1.548-.723 2.441-.932.18-.037.357-.092.54-.151.179-.054.366-.096.552-.14a2.234 2.234 0 0 1 1.159.01c.392-.008.803-.023 1.222-.041.208.004.418.029.628.063.21.04.422.072.618.172a2.168 2.168 0 0 1 1.318.196c.206.095.411.195.611.307.195.122.39.242.595.345.106.05.211.096.312.153l.296.187c.194.128.394.253.586.386.37.297.772.552 1.173.837.213.129.427.265.591.454.17.183.329.379.483.577.153.201.278.423.43.628.073.104.148.205.231.307.073.103.148.207.234.306.357.992.803 1.896 1.306 2.887.006.279.065.543.1.815.035.269.089.538.15.807.056.272.082.55.123.828.015.139.036.28.043.419.003.138.001.275-.004.411a5.904 5.904 0 0 0-.294 1.636c-.022.276-.031.555-.034.84l-.056.849c-.126 1.141-.652 2.184-.994 3.289-.486 1.05-.859 2.17-1.481 3.182-.42 1.119-.999 2.187-1.845 3.072-.58 1.065-1.371 2.004-2.126 2.973-.645 1.058-1.555 1.924-2.343 2.898-.763 1.001-1.938 1.641-2.507 2.844-.828.972-1.791 1.83-2.638 2.812-.933.899-1.884 1.793-2.731 2.803-.6.328-1.09.77-1.535 1.259l-2.133 2.425-.003-.003a55.314 55.314 0 0 1-1.352-1.277l-.618-.609-.351-.352a49.591 49.591 0 0 1-1.348-1.446 63.163 63.163 0 0 1-2.731-2.803c-.983-.854-1.659-1.982-2.638-2.812-.984-.83-1.57-2-2.509-2.844-.901-.878-1.738-1.807-2.343-2.896-.757-.976-1.179-2.164-2.124-2.973-.735-.948-1.749-1.766-1.849-3.072-.688-.983-.846-2.199-1.479-3.184a4.13 4.13 0 0 0-.143-.869 10.872 10.872 0 0 0-.282-.808c-.107-.265-.227-.527-.32-.796-.095-.269-.199-.536-.249-.815-.181-1.126-.18-2.236-.383-3.325a3.643 3.643 0 0 1-.062-.411 4.02 4.02 0 0 1 .003-.425c.019-.282.034-.562.091-.837l.184-.812c.058-.268.149-.528.196-.796.007-.139.025-.276.052-.41a3.94 3.94 0 0 1 .139-.381c.109-.249.219-.495.369-.716.146-.227.29-.447.413-.675.125-.228.257-.448.335-.704l.212-.323.232-.304c.157-.202.293-.415.461-.605.166-.187.331-.374.502-.555.166-.186.369-.33.56-.484.172-.544.597-.828 1.022-1.058.223-.104.459-.177.684-.26.113-.039.225-.08.333-.124.11-.039.221-.074.329-.121a3.7 3.7 0 0 0 .611-.312c.2-.105.401-.21.605-.311.4-.217.848-.309 1.309-.225.185-.158.394-.227.602-.287.208-.052.421-.08.632-.077.425.033.843.107 1.234.17.388.074.769.032 1.154.052.189.007.378.01.564.044.184.04.364.098.533.186.096-.016.192-.026.285-.021.093.008.183.026.27.051.177.047.344.12.507.196.159.089.311.186.464.268.078.043.155.08.232.11.08.034.155.072.239.096.132.116.269.21.412.29.141.084.276.17.419.245.287.143.552.308.781.506.135.074.256.161.369.256.113.092.222.188.326.286.205.196.366.425.515.646.338.405.634.794.881 1.174a16.5 16.5 0 0 1 1.448 2.711c.257.649.353 1.001.289 1.035ZM94.312.077c.094-.117.344-.098.721.037.063.021.129.048.199.077.08.014.167.029.219.095-.061.205.359-.179.238.114.014.125.139.121.258.132.118.008.078.224.273.148.324-.231-.1.467.291.166.155-.01.228.087.307.181-.09.304.189.158.322.199-.122.355.078.319.337.212-.2.462-.045.492.35.228.12.077.113.315.362.242.137.069.31.093.375.256.322-.155.436-.045.385.269.342-.17.381.04.397.282.005.254.448-.029.405.294.118.122.315.151.414.304.043.22.08.456.42.318.19.045.405.067.426.326.375-.173.414.07.434.338.183.069.163.389.44.346.109.162.394.111.442.356.079.206.158.408.441.359.296-.067.227.311.43.356-.075.386.358.144.421.353.161.089.154.383.41.35.177.062.357.121.397.346.47-.305.18.324.385.341-.012.28.28.184.37.335.191.025.098.395.358.327.096.135.354.065.343.32.287-.109.098.366.329.313.113.095.238.17.312.304-.152.412.174.232.296.297.076.12.357-.016.279.283.079.107.06.329.26.275.132.027-.195.621.242.261.15-.005-.095.474.223.25.298-.198.135.165.203.238l.184.223c.515.65.744 1.105.601 1.28-.155.194-.748.012-1.632-.456-.089-.047-.352.117-.274-.148-.082-.069-.309.036-.292-.166-.33.228-.225-.091-.307-.183-.107-.061-.126-.235-.321-.197-.242.092-.133-.252-.338-.214.045-.269-.102-.308-.35-.227.038-.269-.252-.141-.363-.243.111-.368-.164-.269-.373-.254-.202.005-.206-.236-.386-.269-.08-.154-.305-.13-.395-.28-.233.026-.402-.03-.405-.296-.204-.016-.279-.195-.412-.305-.223.001-.261-.232-.422-.316-.185-.052-.039-.518-.428-.326-.172-.076-.245-.278-.434-.338-.112-.153-.223-.313-.438-.345.098-.421-.2-.355-.443-.357-.219-.032-.331-.195-.441-.357a1.693 1.693 0 0 1-.431-.357c-.214-.027-.18-.361-.419-.353-.245.014-.17-.366-.41-.35-.209-.025-.384-.087-.397-.346-.135-.11-.047-.491-.385-.341-.18-.048-.586.19-.372-.334-.214.001-.09-.408-.358-.33.125-.407-.232-.213-.343-.319-.072-.157-.106-.355-.329-.313-.233.054-.161-.265-.313-.304-.252.087-.029-.408-.295-.295-.073-.125-.23-.142-.279-.285-.434.334-.195-.162-.26-.273-.047-.138-.408.124-.242-.263-.343.242-.208-.099-.223-.25-.009-.158-.269 0-.203-.236-.254.158-.052-.243-.181-.225.048-.202-.131-.118-.162-.208-.104-.001-.149-.069-.139-.195-.043-.061-.08-.121-.118-.177-.21-.341-.28-.581-.186-.697Z"/>
    <path d="M94.306.06c.148.011.263.386.344 1.064l.04.363c.028.131.061.269.031.412-.206.129.342.323.028.459-.101.153-.031.324.022.504.054.177-.153.345.015.546.368.217-.454.352.01.588.088.21.043.417.003.63-.307.192-.034.436 0 .668-.369.199-.234.444-.006.702-.503.202-.447.454-.012.738-.003.252-.211.493-.019.77.012.264.082.539-.023.804.302.294.269.57-.03.83.326.308.168.583-.034.859-.216.276.26.608-.041.885-.043.298.034.609-.045.91-.166.295-.349.595-.052.932.062.32.155.647-.056.953.344.349.155.661-.064.972.036.333-.25.642-.067.99-.083.329.112.679-.074 1.005-.136.329-.268.656-.078 1.005.211.351-.148.654-.08.988-.37.301.064.658-.084.97.01.324-.248.623-.087.95.04.32.084.635-.09.931.51.346-.183.599-.09.906-.248.282-.012.595-.093.881.078.297-.289.558-.095.854-.067.279.129.57-.095.829.242.292-.263.521-.098.795-.021.263-.023.52-.098.767-.434.219-.109.489-.099.73-.062.236.201.492-.098.697-.052.224-.25.432-.098.66.043.219-.638.377-.1.62.084.21-.456.364-.099.581.329.215-.069.367-.096.539l-.096.495c-.289 1.419-.558 2.223-.781 2.206-.248-.019-.403-1.05-.465-2.801-.006-.176-.282-.379-.016-.549.016-.187-.192-.4-.009-.588-.37-.229-.041-.417-.005-.628-.003-.216.138-.429.001-.667-.208-.246.146-.454.006-.704.254-.221.211-.47.012-.738.25-.234-.01-.511.019-.771.375-.234.146-.52.021-.801-.109-.28.096-.544.03-.832.089-.276-.048-.573.034-.859-.144-.304-.185-.603.04-.885-.091-.309.023-.603.045-.91-.118-.316.065-.616.052-.932-.051-.32.425-.603.056-.954-.025-.324.11-.639.062-.97.074-.324.152-.65.068-.99.412-.304.199-.657.074-1.006-.087-.346-.006-.676.078-1.003-.015-.337.031-.664.081-.99-.09-.334.214-.637.083-.969-.14-.333.223-.624.087-.951-.09-.323-.127-.638.088-.929.023-.307.399-.583.092-.906-.053-.304-.47-.632.093-.882-.115-.298.302-.555.093-.854.416-.252.062-.555.096-.828.096-.264.249-.522.096-.796-.168-.275.143-.509.099-.766-.208-.267.332-.473.098-.731.069-.234.001-.474.098-.695-.515-.267.037-.448.099-.66.093-.209-.32-.449.099-.621-.388-.231-.025-.4.098-.58.131-.18-.143-.382.098-.539-.27-.195.181-.329.096-.496.198-.144.034-.309.094-.45-.052-.147-.02-.282.095-.401.031-.125.062-.243.091-.353.181-.657.352-1.012.501-1.001Z"/>
    <path d="M86.658 27.772c0 .074-.099.154-.276.236a22.57 22.57 0 0 0-.732.322c-.1.055-.205.109-.316.166-.107.074-.205.176-.342.21-.105-.062-.133.051-.157.157-.026.106-.054.198-.197.105-.183-.007-.267.17-.36.316-.093.14-.341.128-.357.375.065.194-.062.187-.195.19-.13.003-.263.025-.144.249-.031.223-.179.346-.309.507-.353.018-.23.353-.269.568-.422.03-.373.329-.223.621-.276.018-.401.107-.425.228-.019.122.062.275.26.445-.031.231-.279.44-.09.719-.01.249.078.5-.019.753.152.128.247.249.251.374.006.124-.065.253-.179.397.19.111.256.227.26.356.015.126-.036.268-.096.422-.073.155.056.264.152.372a.514.514 0 0 1 .122.172c.03.058.036.126-.005.214.075.267.292.463.373.73.012.15.021.311.084.441.071.122.192.216.398.223.123.077.253.139.354.227a.588.588 0 0 1 .232.344c.221-.052.355-.033.445.063.093.091.161.218.23.377.13.039.232.125.344.216.111.077.245.122.397.066.122.058.264.034.394.036.135-.018.26-.029.394.063.133.044.273.094.412.096a.51.51 0 0 0 .375-.195c.093-.159.221-.161.357-.169.133-.018.289-.005.385-.113.195.081.313-.005.394-.132.078-.133.14-.267.279-.308.089-.107.228-.153.347-.232.113-.081.223-.175.239-.338.059-.131.115-.257.192-.367a.72.72 0 0 1 .291-.297c-.162-.25-.084-.348.057-.427.144-.076.313-.155.315-.302a.39.39 0 0 0 .162-.157.603.603 0 0 0 .043-.201c.01-.142.014-.278.064-.404-.021-.14.067-.256.142-.378.065-.124.112-.256.022-.397.045-.126.005-.261-.014-.39a.475.475 0 0 1 .087-.381c-.138-.127-.087-.249-.028-.379.068-.129.113-.263.01-.374-.019-.247-.098-.474-.09-.719.18-.166.151-.289.084-.39-.075-.103-.19-.187-.248-.283-.022-.113-.118-.195-.185-.283-.065-.092-.119-.179-.04-.34-.058-.208-.021-.483-.271-.566-.075-.071-.014-.232-.003-.368.011-.135-.031-.239-.304-.139-.102-.037-.084-.175-.096-.294-.009-.118-.047-.221-.245-.144-.184.066-.236.005-.263-.095-.023-.1-.027-.23-.091-.28-.124-.11-.236-.231-.359-.316a5.902 5.902 0 0 0-1.427-.823c-.369-.15-.592-.254-.592-.373 0-.062.069-.12.211-.17.14-.05.357-.109.639-.102.561-.019 1.426.137 2.344.713.186.1.54.05.546.39.168.155.49.195.537.489.449-.043.378.362.499.591.158.217.197.504.453.686.162.076.211.217.23.366.022.148.034.298.162.408-.052.177-.058.331 0 .47.052.138.173.26.311.385-.163.352.188.599.21.929-.302.36-.047.643.11.987.074.166.043.34.02.511-.025.17-.056.341-.038.52-.058.17-.054.349-.058.531-.014.177-.027.363-.096.535a1.27 1.27 0 0 1-.005.579 1.108 1.108 0 0 1-.104.264.983.983 0 0 1-.205.23c-.027.403-.291.717-.481 1.058-.043.205-.153.375-.278.535-.136.154-.283.296-.394.47-.105.181-.321.269-.498.382-.183.11-.347.227-.378.52-.146.159-.342.271-.521.388-.186.117-.388.208-.562.355-.208.085-.43.142-.636.227-.211.078-.427.15-.633.271-.271-.136-.491-.14-.71-.069-.219.049-.441.158-.676.246a2.384 2.384 0 0 1-.71.018 4.907 4.907 0 0 1-.676-.195 4.135 4.135 0 0 1-.663-.192c-.206-.095-.416-.188-.605-.305-.219-.063-.4-.204-.558-.359-.154-.161-.313-.302-.524-.382-.211-.08-.351-.254-.465-.436-.109-.186-.217-.363-.412-.467a2.421 2.421 0 0 1-.454-.426 1.223 1.223 0 0 1-.216-.579c-.195-.356-.045-.833-.48-1.058-.053-.08-.127-.153-.205-.23-.068-.076-.14-.153-.192-.236-.102-.168-.147-.361.084-.606-.105-.164-.08-.357-.063-.542.026-.186.046-.363-.091-.522a.508.508 0 0 0 .121-.529c-.047-.165-.155-.334-.14-.503.09-.34.232-.647.111-.987-.155-.353.208-.617.209-.926-.078-.181.049-.312.158-.434.115-.125.214-.243.154-.423.155-.256.184-.561.392-.774-.171-.245-.112-.384.029-.465.138-.082.333-.122.423-.221.098-.093.109-.245.149-.378s.116-.245.351-.213c-.133-.448.293-.417.535-.489.253-.062.223-.447.548-.39.009-.357.425-.128.54-.297.265.069.329-.188.52-.209a.484.484 0 0 1 .48-.133c.153-.026.299-.048.432-.066.403-.026.712-.004.918.063.205.058.304.126.304.201Z"/>
  </g>
</svg>
