<svg xmlns="http://www.w3.org/2000/svg" viewBox="0 0 140.13 120">
  <g fill="#800b21">
    <path d="M137.541 106.583c-.1.002-.243-1.173-.431-3.416-.042-.561-.09-1.189-.144-1.881-.058-.69-.153-1.448-.234-2.266-.084-.818-.173-1.699-.271-2.643-.024-.239-.049-.477-.071-.722l-.104-.738-.212-1.545c-.194-1.413-.371-2.935-.673-4.542-.306-1.605-.591-3.314-.947-5.11-.05-.934-.347-1.828-.634-2.746-.303-.913-.626-1.836-.663-2.884-.317-2.016-1.045-3.993-1.713-6.076a77.283 77.283 0 0 1-1.02-3.191c-.175-.542-.331-1.1-.547-1.636a20.19 20.19 0 0 0-.714-1.587c-.651-.978-.927-2.171-1.314-3.336-.186-.589-.377-1.182-.621-1.749-.241-.571-.53-1.115-.954-1.579-.615-1.075-1.165-2.21-1.767-3.339-.621-1.111-1.216-2.267-1.857-3.414a18.486 18.486 0 0 0-1.983-3.473c-.398-.529-.811-1.055-1.224-1.582-.418-.524-.808-1.081-1.244-1.596-1.275-2.539-3.187-4.592-5.329-6.347a17.938 17.938 0 0 0-1.224-1.853 17.729 17.729 0 0 0-1.484-1.565c-1.029-1.008-2.252-1.751-3.513-2.418l-.411-.354-.425-.338c-.28-.224-.56-.453-.844-.681-.57-.452-1.12-.944-1.713-1.37-1.189-.842-2.382-1.72-3.72-2.311-2.506-1.551-5.208-2.736-7.915-4.077a26.033 26.033 0 0 1-2.163-.583c-.356-.12-.716-.219-1.077-.324-.36-.107-.715-.219-1.074-.341l-2.146-.765a36.64 36.64 0 0 1-2.157-.859c-3.065-.185-6.052-.905-9.168-1.46-1.556-.225-3.143-.236-4.727-.087-1.589.074-3.171.298-4.794.189-3.212.267-6.415 1.02-9.641 1.799-3.258.629-6.548 1.636-9.513 3.589-3.078 1.626-6.052 3.535-9.092 5.422-2.656 2.606-5.541 4.774-8.362 7.243-2.572 2.765-5.273 5.513-7.322 8.961-.282.401-.565.807-.842 1.219-.277.41-.563.813-.808 1.252l-1.516 2.602c-.958 1.783-1.922 3.565-2.889 5.363-.991 1.779-1.825 3.668-2.65 5.548-.734 1.933-1.465 3.862-1.929 5.903-.527 2.012-1.061 3.998-1.673 5.955-.286.984-.531 1.984-.787 2.978-.127.498-.247.996-.363 1.496-.114.5-.188 1.012-.274 1.52-.3.98-.538 1.98-.738 2.984-.179 1.012-.286 2.038-.403 3.057-.258 2.033-.316 4.088-.622 6.093l-.523 6.052a109.097 109.097 0 0 0-.123 3.019c-.016 1.006-.051 2.007.033 3.007.015.501.026 1.003.039 1.5l.019.747.002.094v.026l.006.028.005.049.024.187c.046.007.109-.009.157-.01l.078-.002.625-.012c.424-.003.851-.004 1.275-.01.851.002 1.701.021 2.547.06 3.36-.906 6.72.061 10.012-.192 3.299.278 6.539-.199 9.739-.177 3.198-.228 6.359.238 9.452-.167 3.1 0 6.141-.405 9.144-.153 2.983-.479 5.94.21 8.816-.144 2.88-.063 5.702-.157 8.465-.129 2.779.582 5.468-.013 8.105-.115 2.64.009 5.202-.485 7.72-.104 2.507-.005 4.951.225 7.312-.09 2.368-.147 4.687.835 6.892-.075 2.224-.206 4.392.562 6.451-.062 2.061-.578 4.072-.024 5.989-.046 1.918-.013 3.755-.023 5.511-.033 7.891-.04 14.103-.028 18.341.036 4.238.064 6.504.182 6.508.355.004.194-2.783.445-7.968.737-5.181.29-12.763.628-22.345.994-1.915.075-3.903.573-5.985.225-2.073.045-4.214.439-6.447.227-2.21.65-4.518.213-6.888.237-2.367.083-4.808-.054-7.309.24-2.5.406-5.083-.058-7.717.247-2.646-.307-5.343-.15-8.101.251-2.769-.298-5.582.201-8.462.251-2.896-.485-5.826-.033-8.814.257-2.991.273-6.047.056-9.142.26-3.102-.037-6.246.28-9.449.258-3.192.332-6.439.504-9.737.263-3.293.254-6.632.186-10.011.262-.844.072-1.692.119-2.541.145l-1.277.031-1.862.029-1.2.014-.596.009H1.36l-.148.004h-.058v-.021l.001-.09.005-2.824c-.001-.692 0-1.383-.003-2.079-.004-.514-.009-1.026-.015-1.539-.045-1.03.033-2.061.092-3.093.073-1.028.145-2.063.216-3.098.095-1.033.196-2.068.245-3.111a32.76 32.76 0 0 0 .045-1.57c0-.527-.006-1.054-.006-1.584.199-2.092.397-4.197.755-6.279.168-1.048.312-2.097.488-3.147.193-1.042.383-2.092.556-3.146.11-.519.204-1.046.331-1.566l.378-1.552c.261-1.033.492-2.082.766-3.112.584-2.058 1.098-4.151 1.729-6.21.867-1.951 1.699-3.908 2.411-5.943.806-1.984 1.488-4.057 2.373-6.03.439-.988.87-1.977 1.388-2.909.5-.94.992-1.888 1.527-2.799l1.665-2.671c.27-.452.582-.865.878-1.292l.895-1.269a65.578 65.578 0 0 1 7.705-9.401c2.692-2.974 5.857-5.157 8.808-7.586a34.201 34.201 0 0 1 2.296-1.672c.798-.486 1.606-.95 2.41-1.408.397-.237.814-.43 1.223-.642.407-.21.812-.424 1.219-.634.801-.451 1.621-.846 2.418-1.295 3.215-1.723 6.555-3.107 9.991-3.707.834-.264 1.693-.393 2.541-.55.425-.076.847-.149 1.27-.225.425-.065.852-.105 1.274-.163.423-.054.845-.113 1.266-.178.421-.067.839-.143 1.258-.195a20.34 20.34 0 0 0 2.5-.503c1.676-.172 3.339-.513 5.011-.564a13.205 13.205 0 0 1 4.947.542c1.638.076 3.254.311 4.837.693 1.594.303 3.142.768 4.733.928.745.363 1.495.658 2.251.903.76.237 1.514.472 2.265.704.378.109.756.22 1.132.327.379.105.757.207 1.127.344.742.256 1.479.522 2.202.821 2.837 1.383 5.524 2.943 8.218 4.361 1.383.639 2.607 1.597 3.83 2.503.608.456 1.178.981 1.766 1.456.293.241.587.478.882.71l.443.344.433.36c1.222.85 2.319 1.881 3.31 3.022.505.556 1.004 1.106 1.524 1.626a15.071 15.071 0 0 0 1.563 1.525c1.955 2.176 3.836 4.345 5.443 6.688.572.414 1.017.955 1.444 1.504.421.558.797 1.152 1.15 1.756.68 1.235 1.222 2.549 1.908 3.713.632 1.204 1.357 2.313 2.051 3.429.671 1.129 1.23 2.32 1.565 3.617.41.494.723 1.047 1 1.614.279.568.518 1.152.737 1.742.456 1.17.736 2.406 1.101 3.565.181.581.387 1.142.603 1.69.22.548.408 1.105.615 1.649.398 1.09.792 2.166.978 3.295.959 2.027 1.036 4.292 1.596 6.258.116 1.041.357 2.013.586 2.962.206.96.429 1.888.576 2.811.469 1.799.674 3.56.796 5.222.248 1.64.371 3.189.511 4.629.052.539.101 1.063.147 1.57.024.253.046.505.068.752l.042.729c.051.957.095 1.851.139 2.68.035.832.085 1.594.097 2.296l.007 1.9c-.004 2.265-.052 3.444-.15 3.446Z"/>
    <path d="M.353 108.516c.088 0 .173.86.255 2.504l.063 1.38c.026.509.018 1.082.106 1.613.175 1.086.808 2.298 1.947 3.038.374.248.804.43 1.259.534.465.108.914.105 1.506.086 1.128-.048 2.328-.103 3.595-.079 1.269.245 2.607-.454 4.01-.075 1.405.108 2.878.007 4.411-.075 1.535-.086 3.133.156 4.795-.07 1.659-.478 3.382.529 5.162-.067 1.782-.13 3.622-.096 5.52-.065 1.896.366 3.847.002 5.855-.062 2.005.44 4.068.25 6.179-.055 2.111.601 4.275.509 6.487-.055 2.212-.019 4.472.214 6.781-.05 2.307-.041 4.662-.154 7.057-.046 2.398-.404 4.84-.387 7.322-.043 2.482-.433 5.007-.262 7.568-.038 2.562.241 5.161-.378 7.799-.032 2.637.027 5.31-.098 8.018-.029 2.706.18 5.446.378 8.217-.022 2.771-.106 5.575-.254 8.404-.019 2.831-.461 5.692-.257 8.576-.012 2.884-.079 5.796.248 8.73-.01a50.74 50.74 0 0 0 2.207.002l1.104-.022.553-.014.279-.009c.091-.002.194-.003.244-.012 1.012-.058 1.946-.632 2.583-1.509.249-.358.43-.772.525-1.212.016-.11.055-.221.056-.334l.016-.171.008-.086.005-.116.024-.956c.014-.639.023-1.274.018-1.909 0-.212-.001-.183-.003-.233l-.006-.106c-.008-.07-.014-.134-.027-.189a1.636 1.636 0 0 0-.289.077l-.035.017c-.014.007 0 .012-.098.021-2.936.294-5.846-.125-8.73-.009-2.886-.433-5.746.142-8.576-.014-2.83.041-5.634-.25-8.404-.019-2.77.079-5.51.163-8.218-.024-2.706.664-5.379-.171-8.016-.028-2.639-.281-5.238.041-7.8-.034-2.562.125-5.087-.307-7.568-.036-2.482-.056-4.923.214-7.321-.043-2.395.331-4.75-.277-7.057-.046-2.308-.002-4.569.021-6.781-.048-2.212-.521-4.376-.089-6.487-.055-2.113-.056-4.174.295-6.179-.058-2.008-.041-3.959-.271-5.857-.062-1.895.077-3.738-.753-5.518-.063-1.781.123-3.504-.531-5.162-.067-1.66.426-3.26-.053-4.795-.07l-4.412-.074c-6.319-.113-11.288-.233-14.68-.363-3.391-.127-5.202-.262-5.202-.402 0-.156 2.235-.305 6.39-.445 4.155-.142 10.228-.272 17.904-.394 1.535-.024 3.135-.387 4.795-.07 1.659.002 3.382-.276 5.162-.067 1.781-.481 3.624-.089 5.518-.065 1.898-.022 3.848.132 5.857-.062 2.005-.277 4.067.139 6.179-.055 2.111.295 4.274.218 6.487-.055 2.212.288 4.473-.062 6.781-.05 2.307.443 4.662.132 7.057-.046 2.398-.163 4.84.067 7.321-.041 2.482.084 5.007-.115 7.568-.039 2.562-.209 5.161-.286 7.8-.033 2.637-.142 5.31-.029 8.016-.029 2.706-.176 5.448.024 8.218-.022 2.77-.091 5.574.473 8.404-.019 2.83-.063 5.69.079 8.576-.012 2.884.062 5.794.127 8.73-.01.045.012.204.022.332.034l.391.031.764.055c.502.032.99.06 1.474.08-.019.582-.034 1.144-.045 1.7l-.014 1.539c0 .635.014 1.271.04 1.909l.043.956.005.123v.152l-.002.308c.008.206-.029.411-.045.618a6.62 6.62 0 0 1-.747 2.36 6.051 6.051 0 0 1-2.077 2.185 5.61 5.61 0 0 1-2.827.836c-.138.009-.218.007-.311.005l-.279-.002-.553-.009-1.104-.017-2.207-.05c-2.934.048-5.846.022-8.73-.01-2.884.142-5.744-.207-8.576-.012-2.83.206-5.634-.221-8.404-.019-2.77.139-5.51.216-8.217-.024-2.708 0-5.38-.442-8.018-.027-2.639.094-5.238.64-7.799-.034-2.562.168-5.087-.324-7.568-.036-2.482-.495-4.923-.026-7.322-.043-2.395-.094-4.75-.26-7.057-.046-2.308.236-4.569-.127-6.781-.05-2.212.284-4.376-.37-6.487-.053-2.111-.065-4.174.043-6.179-.058-2.009.665-3.959-.003-5.855-.062-1.898-.094-3.738.44-5.52-.063-1.781.502-3.502.068-5.162-.067-1.66-.147-3.26.212-4.795-.07-1.534.353-3.006-.197-4.411-.074-1.404-.236-2.742-.014-4.01-.077a20.354 20.354 0 0 1-3.595-.079c-.533-.005-1.194-.027-1.756-.197a4.76 4.76 0 0 1-1.548-.755c-1.365-.998-2.036-2.516-2.156-3.812-.023-.163-.024-.325-.026-.481a5.049 5.049 0 0 1 .003-.447c.011-.277.019-.543.031-.798.024-.507.042-.969.061-1.38.083-1.644.167-2.504.255-2.504ZM70.12.325c0 .094-.221.197-.635.308-.205.056-.46.111-.759.171l-1.022.288c-.127.033-.257.07-.395.106l-.412.156c-.277.127-.569.26-.898.327-.393-.106-.499.683-.966.461a1.118 1.118 0 0 0-.281.06 1.693 1.693 0 0 0-.252.142c-.165.111-.324.243-.488.373-.159.137-.371.175-.553.282-.188.096-.372.214-.504.428-.061.327-.322.317-.56.366-.241.048-.488.115-.502.502-.308.378-.661.704-1.044 1.031a.785.785 0 0 0-.374.156 1.205 1.205 0 0 0-.238.315c-.136.238-.231.51-.383.733-.334.058-.523.264-.666.51a2.09 2.09 0 0 0-.236.875c-.377.079-.626.272-.76.541a1.033 1.033 0 0 0-.104.457c.003.173.035.363.093.56-.112.274-.289.522-.423.796-.119.279-.213.579-.197.916-.037.151-.085.296-.109.454a27.2 27.2 0 0 0-.075.469c-.051.31-.138.617-.244.921.292.718.148 1.308-.176 1.961.363.685.191 1.318.051 2.027l-.013.065c-.006.007-.01.015-.014.021-.006.015-.01.029-.014.043a.124.124 0 0 0 .014.07.153.153 0 0 0 .109.069c.04.005.075-.002.087.017.003.012.001.029-.008.062-.01.031-.01.053-.021.101a.543.543 0 0 0 .212-.08l.05-.024c.011-.005 0-.003.035-.014l.138-.034c.184-.045.372-.082.561-.108.39.005.78 0 1.162-.051a2.218 2.218 0 0 0 1.11-.416c.757-.231 1.521-.521 2.34-.401.744-.541 1.578-.421 2.405-.262a4.74 4.74 0 0 1 1.226-.045c.411.022.823.021 1.23-.123.414.017.828-.051 1.243-.103.21-.026.419-.046.626-.053.21-.005.42.031.632.084.842.158 1.665.31 2.502.062.844-.3 1.638.235 2.454.185.388.254.792.255 1.201.223.406-.027.82-.115 1.205.038.797.086 1.535.5 2.339.396.39.026.784.036 1.164.106.38.079.751.19 1.108.366a.947.947 0 0 1 .744-.094c.034.009.022.007.026.01v.01a.557.557 0 0 0 .111.268c.045.06.104.098.117.065a.435.435 0 0 0 .109.097c.018 0 .032-.014.04-.034a.332.332 0 0 0 .011-.161c-.011-.062-.026-.118-.035-.164-.005-.026-.005-.043-.005-.068 0-.014 0-.024.003-.036l.003-.017.011-.058c-.048-.685.347-1.368.051-2.033.05-.682-.334-1.279-.176-1.961-.207-.284-.233-.598-.228-.927.002-.164.003-.33-.016-.49a.897.897 0 0 0-.184-.43l-.297-.87c-.112-.282-.233-.555-.322-.842.046-.192.045-.361.011-.512-.032-.152-.124-.272-.21-.391-.184-.231-.419-.421-.571-.656-.117-.264-.35-.437-.529-.642a1.344 1.344 0 0 1-.372-.743c-.16-.214-.282-.462-.427-.687a2.182 2.182 0 0 0-.239-.312 1.103 1.103 0 0 0-.329-.206c-.204-.147-.261-.457-.374-.718-.101-.267-.29-.437-.669-.315-.218-.098-.324-.348-.457-.567-.13-.224-.311-.372-.606-.3-.289.062-.457-.063-.602-.236-.138-.187-.279-.368-.452-.476a83.095 83.095 0 0 0-.515-.305c-.085-.053-.168-.101-.252-.151-.085-.041-.172-.079-.255-.12-.38-.173-.735-.361-1.081-.503-.354-.128-.685-.25-.991-.365a3.252 3.252 0 0 0-.456-.142l-.42-.116-.743-.212c-.897-.176-1.396-.337-1.396-.478 0-.077.154-.144.459-.204.152-.029.34-.055.566-.079.226-.022.491-.058.783-.034.297.012.627.031.993.057.184.005.372.043.568.079.196.039.401.077.611.118.212.048.438.072.659.147.225.072.454.142.691.217.234.084.488.144.73.255l.751.337c.204.097.462.097.684.19.225.082.438.207.568.476.202.14.459.202.683.334.225.125.446.277.594.527.714-.058.881.663 1.27 1.074.109.094.21.199.308.31l.27.353c.186.236.385.457.653.63.305.142.444.44.598.724.144.291.3.574.539.803.047.366.167.68.343.962.083.14.199.269.3.406.106.135.221.264.351.394.019.38.181.683.358.993.159.317.348.627.462.974-.042.211-.03.399-.014.584.016.189.063.363.125.538.124.348.337.68.484 1.039.253.731.189 1.533.297 2.315-.03.793.164 1.601.014 2.42a.789.789 0 0 1 .011.084l.005.127.006.258c.01.173-.011.349-.023.529-.023.358-.061.721-.111 1.079a10.423 10.423 0 0 1-.345 1.513c-.007.015-.007.045-.021.05l-.069-.024-.135-.048-.271-.099c-1.144-.099-2.913-.579-3.319-.685-.372.007-.728-.082-1.086-.187a7.557 7.557 0 0 0-1.093-.221c-.746-.024-1.423-.705-2.236-.339-.377-.041-.759-.077-1.139-.132-.382-.051-.765-.101-1.157-.091-.767-.122-1.543-.301-2.337-.159-.772-.503-1.585-.223-2.382-.055-.201.033-.399.038-.598.06a7.848 7.848 0 0 1-.595.033c-.396.007-.792-.01-1.187-.029a17.37 17.37 0 0 1-1.177.074c-.39 0-.778.053-1.165.068-.759.223-1.558-.046-2.294.224-.728.312-1.529.029-2.238.346a6.463 6.463 0 0 1-1.075.313c-.361.074-.723.127-1.102.089-.18.043-.359.056-.544.063l-.138.004-.229.021-.473.05c-.626.075-1.176.187-1.936.558l-.257.075-.13.043c-.022.005-.048.019-.064.019l-.018-.056c-.053-.146-.103-.295-.154-.443-.104-.3-.221-.617-.308-.961s-.154-.716-.173-1.094a2.56 2.56 0 0 1 .069-.841 1.31 1.31 0 0 0 .035-.134c.018-.031.034-.056.051-.082a2.085 2.085 0 0 1-.069-.613c.013-.206.042-.409.067-.613.045-.402.135-.793.013-1.199.253-.38.26-.762.281-1.149.003-.389-.046-.789.016-1.168.112-.365.274-.712.38-1.068a3.85 3.85 0 0 0 .133-.536c.035-.181.077-.361.083-.553.014-.384.164-.721.324-1.038.18-.312.391-.596.497-.93a1.16 1.16 0 0 1 .159-.505c.083-.149.215-.271.331-.396.239-.252.467-.488.507-.86.188-.269.38-.527.553-.796.183-.259.345-.533.584-.731-.039-.45.167-.692.425-.86.13-.084.274-.151.409-.221.144-.06.282-.123.395-.214.468-.32.545-1.146 1.274-1.07a.84.84 0 0 1 .507-.663c.236-.116.534-.118.772-.199.242-.074.417-.25.602-.409.178-.171.39-.276.647-.257.128-.264.351-.324.573-.351.112-.015.225-.021.329-.041a.57.57 0 0 0 .294-.104c.459.068.748-.279 1.11-.355a1.71 1.71 0 0 1 1.022-.2l.462-.086c.152-.012.297-.021.438-.031.423-.024.796-.05 1.115-.05.324.026.595.055.815.087.435.065.656.144.656.236Zm-.488 70.817c-.08.043-.276-.166-.576-.593-.313-.418-.73-1.065-1.332-1.805a10.677 10.677 0 0 0-.674-.748c-.268-.231-.557-.454-.836-.709-.082-.214-.298-.252-.512-.265a.892.892 0 0 1-.294-.069c-.09-.036-.165-.105-.216-.238-.156-.151-.361-.207-.563-.274-.217-.032-.427-.068-.658-.063a1.31 1.31 0 0 1-.334-.05c-.112-.026-.226-.048-.343-.074a1.144 1.144 0 0 0-.727.045c-.247.231-.468.127-.733.019-.25-.079-.539-.147-.727.206-.231.137-.475.202-.711.315-.119.05-.244.092-.367.137l-.363.166a.795.795 0 0 0-.229.002.763.763 0 0 0-.199.074 1.365 1.365 0 0 0-.343.25c-.193.231-.369.474-.547.709-.353.029-.595.233-.773.488-.09.127-.141.288-.193.443-.024.079-.043.161-.064.241-.011.086-.019.175-.029.26-.805.202-1.02.991-.664 1.757-.029.158-.091.31-.127.469l-.114.485a2.533 2.533 0 0 0-.003.757c.019.089.047.178.082.267.056.716.239 1.418.3 2.173.526.646.716 1.336.69 2.206.646.575.824 1.353 1.019 2.202.184.865 1.097 1.267 1.285 2.178.44.743 1.022 1.394 1.494 2.152.39.827.8 1.682 1.66 2.135.65.644 1.343 1.253 1.793 2.123.93.397 1.415 1.243 1.894 2.127.693.658 1.133 1.603 1.973 2.141.154.19.324.368.501.541l.268.252.127.118.024.007c.063.019.074.004.119.192.048.05.148.039.237-.034a.143.143 0 0 0 .032-.029l.119-.127a7.8 7.8 0 0 0 .237-.286c.152-.197.292-.408.414-.634.468-.928 1.405-1.349 1.973-2.142.937-.414 1.177-1.522 1.895-2.125.582-.738 1.381-1.26 1.793-2.125.515-.765.998-1.531 1.659-2.134.026-1.116 1.141-1.337 1.495-2.152.683-.574.85-1.485 1.285-2.18.268-.786.977-1.348 1.019-2.201.326-.729.298-1.538.69-2.207-.042-.2-.027-.387.011-.567a3.19 3.19 0 0 1 .157-.531c.111-.351.236-.712.132-1.075l.006-.267c0-.086-.006-.166-.01-.252-.014-.163-.011-.329-.029-.492a8.25 8.25 0 0 1-.059-.486c-.014-.163-.053-.319-.072-.48.04-.096.067-.19.08-.281a1.158 1.158 0 0 0-.01-.257 1.19 1.19 0 0 0-.164-.459c-.087-.14-.189-.267-.282-.394-.098-.125-.21-.236-.29-.368a1.499 1.499 0 0 0-.111-.2 2.621 2.621 0 0 0-.146-.173c-.103-.108-.199-.221-.308-.32a1.662 1.662 0 0 1-.496-.738c-.184-.228-.38-.44-.579-.654a2.343 2.343 0 0 0-.342-.248 1.692 1.692 0 0 0-.186-.092.947.947 0 0 0-.207-.039.797.797 0 0 1-.329-.255c-.103-.103-.202-.219-.311-.324-.212-.216-.488-.305-.802-.043-.257.005-.48-.156-.72-.284-.242-.097-.496-.176-.74.063-.242.224-.475.209-.708.173-.119-.019-.237-.06-.354-.082a1.17 1.17 0 0 0-.343-.012c-.225.024-.427.092-.637.132-.196.074-.401.118-.582.206-.427.163-.792.413-1.139.652-.33.262-.638.531-.9.817-.531.565-.943 1.12-1.267 1.582-.65.925-1.007 1.442-1.131 1.375-.119-.063.043-.839.655-2.173.322-.658.757-1.473 1.495-2.293.367-.409.82-.807 1.354-1.156a6.586 6.586 0 0 1 1.842-.786 2.52 2.52 0 0 0 .406-.147c.133-.053.271-.101.412-.146.285-.096.579-.106.876.039.294-.007.608-.045.927-.074.318.003.65.029.948.207a1.141 1.141 0 0 1 1.023.087c.159.082.31.18.46.277.144.111.289.218.444.303.08.039.161.079.236.125l.225.154.443.322c.279.241.586.449.913.656.374.154.611.49.834.827.112.164.202.354.314.522.055.086.114.168.178.248.059.082.12.163.191.241.194.863.55 1.563 1.022 2.353-.019.235.018.454.043.673.022.221.07.438.124.659.051.221.082.447.122.675.018.111.037.23.043.343.006.111.006.221 0 .33-.438.86-.242 1.74-.271 2.677-.043.93-.51 1.742-.731 2.632-.387.825-.605 1.745-1.089 2.538-.247.918-.659 1.784-1.354 2.43-.388.868-1.003 1.584-1.558 2.343-.425.872-1.149 1.503-1.712 2.276-.536.805-1.541 1.164-1.832 2.228-.587.772-1.327 1.406-1.922 2.194-.696.683-1.405 1.361-1.989 2.183a2.499 2.499 0 0 0-.658.38 3.272 3.272 0 0 0-.274.252l-.132.142-.215.243c-.563.656-1.126 1.43-1.774 2.255a33.817 33.817 0 0 1-1.967-1.992l-.242-.267-.13-.149-.241-.286-.473-.579c-.706-.692-1.354-1.433-1.988-2.182-.754-.63-1.157-1.598-1.922-2.195-.773-.596-1.093-1.618-1.832-2.228-.696-.651-1.335-1.365-1.712-2.274-.56-.767-.743-1.793-1.559-2.343-.566-.724-1.481-1.276-1.352-2.432-.565-.753-.529-1.793-1.089-2.536.058-.52-.085-.94-.253-1.36-.181-.413-.388-.829-.478-1.272-.106-.913-.048-1.803-.274-2.675a2.405 2.405 0 0 1-.066-.334 2.513 2.513 0 0 1-.005-.348c.013-.231.034-.462.085-.687.056-.223.111-.445.167-.663.051-.219.122-.432.154-.651-.006-.118 0-.233.021-.342.026-.108.063-.212.106-.315.088-.2.186-.396.315-.574.123-.178.247-.349.345-.534.101-.181.196-.366.231-.589.467-.673.89-1.384 1.521-1.839.059-.527.393-.767.736-.932.18-.072.372-.115.555-.163.091-.022.181-.048.266-.077.088-.026.175-.048.258-.086.167-.06.316-.152.462-.259.151-.094.298-.195.451-.288.3-.195.648-.276 1.015-.122.27-.32.61-.383.932-.366.329.046.651.158.942.233.292.086.578.031.868.036.144 0 .289-.004.427.027.141.036.274.094.398.19.308-.13.576.021.812.166.233.181.444.356.696.426.091.113.194.197.298.267.104.074.207.14.314.199.221.111.43.233.595.401.411.231.708.581.889.973.247.329.459.646.632.95.531.911.813 1.661.987 2.176.16.519.202.808.127.849Zm-41.169 3.742c.144.104.156.425.05.914-.016.08-.035.168-.059.258-.005.103-.011.212-.077.286-.247-.043.26.414-.098.312-.143.038-.12.19-.115.337.01.146-.247.134-.131.36.324.351-.565-.039-.141.385.045.19-.048.3-.138.418-.366-.045-.138.269-.154.438-.435-.072-.35.168-.17.457-.573-.135-.576.063-.181.476-.063.163-.337.214-.196.495-.045.176-.016.397-.181.522.268.348.18.51-.188.543.289.36.069.464-.201.557-.289.086.168.522-.212.572-.103.18-.083.413-.21.587-.226.13-.475.26-.199.613.021.243.074.5-.207.623.329.372.077.503-.213.634-.008.238-.38.341-.221.644-.13.197.048.507-.194.666-.193.18-.377.363-.204.664.199.308-.239.402-.202.652-.452.092 0 .471-.204.64-.021.223-.331.363-.173.635.021.233.048.462-.172.623.553.373-.253.366-.172.606-.305.133-.058.409-.173.589.067.224-.379.32-.17.572-.088.181.125.43-.141.56.266.255-.322.313-.146.541-.032.18-.045.36-.141.519-.51.075-.144.325-.143.497-.082.154.212.375-.143.473-.066.149-.311.262-.133.449.05.159-.74.173-.119.425.096.157-.528.197-.116.397.379.195-.083.25-.114.37-.04.116-.08.231-.115.339-.34.973-.659 1.522-.919 1.492-.29-.034-.464-.788-.521-2.072-.006-.129-.326-.313-.014-.401.021-.135-.22-.319-.008-.433-.423-.219-.042-.308.001-.459-.005-.161.177-.29.026-.486-.228-.211.189-.307.038-.512.306-.118.266-.305.048-.538.3-.123.01-.375.056-.56.443-.099.191-.351.063-.584-.112-.23.133-.38.072-.605.115-.183-.01-.43.106-.62-.138-.255-.16-.485.122-.637-.08-.248.075-.435.128-.652-.107-.265.125-.435.138-.671-.027-.248.529-.322.149-.682.011-.243.204-.432.193-.688.124-.212.25-.423.199-.697.502-.086.305-.409.209-.707-.053-.282.082-.495.213-.705.034-.247.143-.464.25-.68-.046-.276.343-.377.253-.666-.101-.295.35-.36.252-.649-.045-.269-.032-.512.252-.632.072-.214.547-.24.276-.604.003-.235-.379-.659.282-.579-.059-.265.441-.252.277-.56.501.021.181-.361.274-.538.16-.14.371-.247.273-.514-.112-.276.276-.279.292-.478-.154-.293.468-.151.284-.452.13-.123.117-.325.274-.426-.473-.466.149-.289.265-.401.149-.091-.221-.49.255-.37-.345-.384.083-.288.258-.336.184-.043-.037-.339.253-.301-.22-.291.279-.111.239-.272.245.024.122-.187.225-.241-.013-.132.058-.202.209-.211.067-.065.132-.125.194-.178.367-.324.635-.447.781-.344Z"/>
  </g>
</svg>
