<svg xmlns="http://www.w3.org/2000/svg" viewBox="0 0 122.68 120.627">
  <g fill="#800b21">
    <path d="M81.4 54.708c0 .077-.957.103-2.766.315-1.802.228-4.486.661-7.715 1.891l.061-.029-.035.021-.017.01-.01.007h-.004v.003h-.001l-.49-.062v-.003l-.057-.055-.115-.11-.233-.219-.48-.447a39.968 39.968 0 0 0-4.665-3.658 39.324 39.324 0 0 0-.879-.562c-.151-.091-.301-.184-.454-.278-.169-.1-.339-.201-.508-.304-.859-.514-1.833-1.031-2.794-1.558l.005-.033c.005-.011-.008-.021.021-.033l.13-.069.259-.14.536-.281c.631-.277 1.17-.554 1.749-.85l.435-.228.336-.18.66-.354c.89-.468 1.836-.904 2.896-1.107 2.037-.607 4.161-1.259 6.45-1.732 2.294-.477 4.74-.524 7.264-.728 1.267-.204 2.569-.055 3.867.141 1.304.196 2.602.438 3.985.431 2.703.355 5.43 1.112 8.105 2.158 1.282.649 2.605 1.231 3.938 1.855 1.33.627 2.671 1.293 3.949 2.09 2.303 1.922 4.752 3.709 7.122 5.792 1.778 2.563 3.713 4.965 5.751 7.542 1.623 2.79 2.693 5.876 3.746 9.025.867 3.198 1.362 6.582 1.179 10.017.258 3.44-.356 7.008-1.766 10.329-.768 3.513-2.592 6.838-4.921 9.804-1.171 1.482-2.311 2.995-3.592 4.436-1.276 1.441-2.696 2.808-4.351 3.923-3.121 2.419-6.615 4.553-10.496 6.018-3.922 1.388-8.041 2.198-12.262 2.882-4.247.451-8.672.326-12.909-.75-4.371-.529-8.558-2.256-12.257-4.565-1.929-1.046-3.726-2.309-5.415-3.686-1.689-1.379-3.273-2.871-4.825-4.414-1.444-1.626-2.81-3.327-4.012-5.141-1.203-1.811-2.237-3.739-2.995-5.766-1.57-4.041-2.377-8.237-2.794-12.437-.221-2.105-.102-4.225.212-6.299.318-2.077.833-4.108 1.408-6.113.803-1.943 1.563-3.87 2.458-5.747.895-1.874 1.929-3.698 3.225-5.338a30.799 30.799 0 0 1 1.975-2.427l.532-.576.27-.284.332-.343c.156-.151.29-.313.461-.453.168-.14.334-.296.504-.42l.264-.096c.091-.021.197-.001.295-.004.099.005.195-.007.299.015l.326.112c.216.07.433.162.649.247l.259.107.2.085c.256.11.495.217.743.328.489.222.973.454 1.449.695.957.481 1.887.995 2.803 1.532.634.395 1.245.812 1.842 1.249l.222.163.245.186c.263.202.516.409.768.614.495.417.995.838 1.478 1.262-.454.41-.909.819-1.365 1.226-.229.206-.442.415-.662.623l-.343.341c-.432.435-.847.88-1.25 1.335a35.049 35.049 0 0 0-2.248 2.837c-.76 1.681-1.599 3.264-2.321 4.912-.718 1.641-1.31 3.354-1.502 5.112-.371 1.733-.424 3.51-.27 5.248.153 1.74.511 3.44.961 5.102.528 1.639 1.117 3.253 1.879 4.79.76 1.537 1.696 2.996 2.873 4.256 1.066 1.337 2.311 2.526 3.632 3.6 1.322 1.075 2.721 2.035 4.139 2.959 1.548.723 3.048 1.466 4.61 2.091 1.555.624 3.174 1.122 4.832 1.314 3.277.569 6.587.562 9.751.141 1.616-.033 3.186-.383 4.662-.894 1.477-.51 2.86-1.179 4.198-1.866 1.359-.658 2.595-1.48 3.756-2.343 1.162-.868 2.248-1.781 3.362-2.664 2.028-1.931 3.837-4.046 4.909-6.427.584-1.159 1.249-2.271 1.763-3.435.512-1.161.871-2.375.81-3.615.176-1.194.429-2.36.564-3.53.134-1.167.15-2.335-.152-3.446-.282-1.108-.442-2.191-.625-3.261-.18-1.068-.384-2.123-.738-3.115a25.83 25.83 0 0 0-2.7-5.444c-2.404-3.695-5.478-6.424-8.458-8.322a30.496 30.496 0 0 0-8.296-3.669c-2.413-.661-4.341-.899-5.64-1.038-1.3-.133-1.98-.166-1.98-.228 0-.053.839-.147 2.469-.086a29.3 29.3 0 0 1 7.069 1.186 29.99 29.99 0 0 1 10.097 5.233 28.624 28.624 0 0 1 4.97 5.048 27.033 27.033 0 0 1 3.833 6.888c.391 1.035.794 2.095 1.093 3.211.302 1.113.497 2.282.465 3.478.107 1.185.193 2.395.17 3.634-.02 1.235-.156 2.497-.489 3.741-.04 1.293-.367 2.581-.847 3.831-.479 1.252-1.11 2.468-1.772 3.683-1.294 2.457-3.126 4.707-5.141 6.901-.985 1.124-2.185 2.097-3.475 2.971-1.292.878-2.668 1.659-4.069 2.452-2.999 1.236-6.116 2.315-9.473 3.044-1.714.143-3.436.277-5.186.303-1.749.025-3.531-.062-5.297-.373-1.73-.48-3.449-.956-5.164-1.526-1.711-.569-3.419-1.234-5.053-2.076-1.631-.849-3.15-1.913-4.55-3.109-1.402-1.198-2.687-2.527-3.897-3.931-1.142-1.451-2.197-2.982-3.093-4.613-.894-1.63-1.629-3.359-2.118-5.164-1.22-3.547-1.571-7.454-.806-11.23.421-3.823 1.92-7.567 4.111-10.925a22.615 22.615 0 0 1 2.321-3.181 26.53 26.53 0 0 1 1.37-1.46l.346-.335.05-.04.103-.084c-.017-.03-.057-.062-.09-.095l-.053-.047-.376-.292a22.82 22.82 0 0 0-1.671-1.164 50.911 50.911 0 0 0-2.526-1.482 35.3 35.3 0 0 0-1.313-.677 39.322 39.322 0 0 0-.67-.314l-.155-.07-.08-.036-.02-.011-.077-.041-.083-.042c-.013-.004-.03-.019-.041-.015l-.032.027-.067.058-.089.086a7.13 7.13 0 0 0-.2.208l-.251.272c-.166.181-.327.366-.487.553a17.206 17.206 0 0 0-1.71 2.385c-2.287 3.163-4.211 6.638-5.309 10.402-1.224 3.716-1.799 7.684-1.506 11.639-.12 1.988.099 3.995.573 5.95.47 1.957 1.189 3.863 2.05 5.704 1.679 3.697 3.852 7.165 6.561 10.224a40.442 40.442 0 0 0 9.591 7.601c1.821.956 3.665 1.855 5.575 2.605 1.909.751 3.884 1.352 5.906 1.693 2.02.336 4.03.645 6.059.808 2.021.162 4.063.178 6.058-.074 3.997-.457 7.828-1.425 11.522-2.67 1.806-.712 3.588-1.47 5.273-2.379 1.684-.909 3.268-1.969 4.62-3.246 1.439-1.178 2.703-2.507 3.907-3.846 1.203-1.343 2.347-2.695 3.611-3.992.962-1.484 1.922-2.95 2.753-4.476.831-1.522 1.533-3.103 1.945-4.742.733-1.55 1.147-3.195 1.383-4.838.24-1.644.299-3.288.351-4.912.171-3.239-.066-6.482-1.039-9.488-.492-1.497-.961-2.978-1.508-4.422-.548-1.444-1.173-2.855-1.967-4.163-.867-1.268-1.634-2.563-2.483-3.807-.846-1.241-1.774-2.427-2.908-3.412-2.028-2.169-4.369-3.96-6.725-5.584-1.365-.559-2.581-1.256-3.792-1.953-1.207-.693-2.414-1.385-3.691-1.898-1.27-.528-2.597-.862-3.901-1.165-1.304-.306-2.584-.579-3.828-.998-1.321-.021-2.584-.16-3.831-.308-1.247-.147-2.482-.303-3.704-.344-1.22-.048-2.417.059-3.581.196-1.164.139-2.295.31-3.426.395-1.08.337-2.157.532-3.214.743-1.057.212-2.097.439-3.049.817-1.006.248-1.946.607-2.835 1.005-.221.103-.441.203-.66.303l-.311.151-.191.094c-.251.126-.492.247-.758.369-.066.041-.136.082-.203.122l-.1.06-.049.03c-.017.004.003.01.011.014l.029.015c.425.214.778.418 1.129.651l.411.273.449.313c.294.21.578.425.855.643a39.075 39.075 0 0 1 4.654 3.879l.474.472.229.232.111.117.055.058h.003c.483.064-.658-.081-.539-.067s.005-.003.005-.003l.008-.004.018-.01.035-.021.04-.022.029-.011c3.368-1.15 6.132-1.466 7.971-1.57 1.849-.089 2.807.015 2.807.071Z"/>
    <path d="M41.274 109.319c0-.075.959-.1 2.774-.318a33.727 33.727 0 0 0 5.414-1.111 31.433 31.433 0 0 0 1.423-.457c.12-.045.236-.089.356-.136.242-.114.489-.244.735-.374h.04l.037.034.07.069.143.138c.097.092.192.186.293.281l.291.278.269.25a40.243 40.243 0 0 0 4.654 3.663c.294.193.596.385.901.577l.466.284.539.324c.864.515 1.882 1.057 2.859 1.592 0 .006 0 .011-.005.017l-.034.016-.068.031-.14.069-.289.137c-.127.062-.266.129-.402.198-.679.274-1.219.547-1.792.849l-.434.226c-.118.063-.238.126-.356.192l-.66.354c-.887.469-1.833.906-2.895 1.112-2.036.612-4.162 1.266-6.451 1.742-2.294.48-4.741.529-7.267.736-1.267.204-2.57.058-3.871-.137-1.303-.195-2.604-.435-3.988-.428-2.704-.352-5.432-1.105-8.112-2.151-1.284-.647-2.607-1.23-3.94-1.854-1.334-.624-2.674-1.29-3.954-2.087-2.307-1.923-4.758-3.709-7.133-5.791-1.781-2.564-3.718-4.967-5.756-7.545-1.626-2.793-2.699-5.878-3.751-9.031C.372 87.869-.123 84.483.059 81.046c-.259-3.443.356-7.014 1.766-10.337.769-3.516 2.597-6.841 4.928-9.808 1.172-1.482 2.313-2.996 3.595-4.44 1.277-1.44 2.699-2.807 4.355-3.922 3.125-2.42 6.622-4.554 10.505-6.02 3.925-1.388 8.049-2.197 12.271-2.877 4.25-.447 8.679-.317 12.915.764 2.181.267 4.329.834 6.385 1.625 2.055.788 4.018 1.802 5.874 2.959 1.927 1.049 3.724 2.312 5.412 3.694 1.693 1.381 3.272 2.877 4.823 4.421 1.441 1.63 2.808 3.333 4.005 5.15 1.2 1.816 2.231 3.744 2.986 5.773 1.563 4.046 2.364 8.247 2.772 12.449.216 2.108.095 4.227-.226 6.304s-.839 4.11-1.419 6.114c-.807 1.942-1.572 3.87-2.472 5.746-.898 1.875-1.936 3.697-3.241 5.335a29.87 29.87 0 0 1-1.73 2.142c-.306.346-.619.683-.934 1.015l-.632.647-.212.215c-.08.04-.17.051-.256.077l-.259.07c-.083.025-.178.044-.239.074-.103.052-.256.071-.391.106l-.455.101a23.623 23.623 0 0 1-.667-.262l-.314-.126-.192-.081c-.253-.11-.506-.221-.755-.333-.5-.229-.994-.468-1.483-.716a49.823 49.823 0 0 1-2.864-1.573 29.265 29.265 0 0 1-3.587-2.649l-1.292-1.12 1.564-.834.302-.16.053-.032.01-.005c.007-.004.012-.01.017-.015l.261-.247.298-.289a32.456 32.456 0 0 0 1.696-1.806 34.569 34.569 0 0 0 2.026-2.563c.765-1.68 1.613-3.259 2.34-4.908.724-1.641 1.321-3.353 1.517-5.111.378-1.733.436-3.512.287-5.25-.15-1.74-.503-3.443-.946-5.106-.527-1.643-1.11-3.258-1.869-4.798-.757-1.54-1.691-3.003-2.867-4.265-1.06-1.34-2.304-2.535-3.621-3.61-1.324-1.079-2.719-2.042-4.136-2.969-1.546-.725-3.044-1.47-4.61-2.097-1.556-.628-3.174-1.129-4.832-1.325-3.277-.576-6.589-.575-9.756-.16-1.618.032-3.189.38-4.667.887-1.48.51-2.864 1.175-4.203 1.862-1.361.654-2.6 1.475-3.764 2.339-1.164.868-2.251 1.779-3.366 2.66-2.034 1.931-3.846 4.045-4.922 6.426-.587 1.159-1.251 2.271-1.767 3.436-.515 1.16-.876 2.374-.814 3.615-.18 1.194-.433 2.36-.569 3.531-.136 1.167-.151 2.338.147 3.449.282 1.111.442 2.193.625 3.264.18 1.07.382 2.124.736 3.117a25.885 25.885 0 0 0 2.696 5.449c2.404 3.7 5.48 6.431 8.459 8.33a30.449 30.449 0 0 0 8.301 3.674 34.14 34.14 0 0 0 5.641 1.039c1.304.133 1.982.166 1.982.228.002.055-.839.147-2.47.086-1.623-.069-4.055-.302-7.073-1.189a29.951 29.951 0 0 1-10.099-5.237 28.526 28.526 0 0 1-4.971-5.053 27.016 27.016 0 0 1-3.832-6.895c-.389-1.037-.793-2.098-1.091-3.214-.299-1.113-.494-2.283-.464-3.48-.103-1.185-.189-2.397-.164-3.635.021-1.237.158-2.5.494-3.743.04-1.293.369-2.582.851-3.833.482-1.252 1.117-2.468 1.78-3.684 1.299-2.456 3.133-4.706 5.152-6.897.987-1.124 2.192-2.095 3.482-2.97 1.295-.875 2.673-1.656 4.075-2.446 3.004-1.233 6.123-2.306 9.485-3.032 1.716-.14 3.438-.272 5.191-.293 1.749-.021 3.533.067 5.297.383 1.729.484 3.452.964 5.164 1.54 1.709.568 3.418 1.237 5.052 2.082 1.631.851 3.149 1.92 4.548 3.118 1.403 1.203 2.682 2.534 3.887 3.941 1.14 1.456 2.191 2.991 3.082 4.625.892 1.633 1.623 3.365 2.108 5.172 1.209 3.551 1.553 7.461.775 11.237-.433 3.824-1.945 7.568-4.15 10.921a22.214 22.214 0 0 1-2.081 2.881c-.386.458-.791.902-1.214 1.333a22.89 22.89 0 0 1-.646.639l-.331.313-.377.347a1.8 1.8 0 0 1-.276.203l-.15.085-.108.056-.355.181.27-1.939a24.721 24.721 0 0 0 3.242 2.481 51.536 51.536 0 0 0 2.581 1.521c.442.241.89.473 1.345.695.228.11.458.218.688.322l.175.078c.04.019.033.018.053.027l.08.044.065.032c.021.007.048.036.061.008l.116-.104.028-.027c.012-.011.012-.008.06-.06l.223-.234c.294-.318.58-.643.856-.976a16.988 16.988 0 0 0 1.489-2.11c2.296-3.158 4.231-6.633 5.338-10.398 1.23-3.717 1.814-7.684 1.529-11.644.127-1.988-.093-3.995-.562-5.953-.467-1.958-1.181-3.867-2.038-5.713-1.676-3.7-3.841-7.174-6.548-10.238a40.441 40.441 0 0 0-9.588-7.617c-1.822-.958-3.665-1.859-5.575-2.615-1.909-.753-3.884-1.356-5.908-1.702-2.02-.339-4.032-.65-6.06-.813-2.024-.165-4.066-.181-6.062.07-4.001.453-7.834 1.419-11.529 2.664-1.808.71-3.591 1.469-5.278 2.378-1.684.908-3.27 1.97-4.623 3.246-1.441 1.176-2.707 2.507-3.911 3.849-1.205 1.342-2.351 2.694-3.618 3.992-.961 1.485-1.922 2.954-2.755 4.479-.831 1.522-1.533 3.104-1.945 4.746-.735 1.548-1.149 3.194-1.387 4.839-.24 1.645-.298 3.29-.351 4.913-.169 3.243.07 6.489 1.041 9.496.496 1.497.963 2.977 1.511 4.424.547 1.445 1.174 2.855 1.967 4.164.868 1.27 1.64 2.564 2.487 3.808.848 1.241 1.777 2.428 2.913 3.413 2.029 2.169 4.373 3.959 6.73 5.582 1.37.559 2.584 1.256 3.797 1.95 1.211.694 2.418 1.386 3.695 1.896 1.273.527 2.6.863 3.903 1.166 1.307.303 2.587.575 3.832.993 1.322.021 2.584.158 3.833.304 1.248.145 2.484.3 3.708.343 1.22.045 2.419-.062 3.583-.202 1.166-.14 2.298-.313 3.43-.399 1.077-.337 2.155-.535 3.214-.749 1.057-.212 2.096-.439 3.049-.821 1.94-.457 4.038-1.602 4.729-1.921l.147-.088.105-.058.051-.03.027-.014.013-.005-.013-.008a10.86 10.86 0 0 1-1.177-.673c-.135-.089-.27-.18-.402-.269l-.462-.32a21.04 21.04 0 0 1-.875-.66 38.745 38.745 0 0 1-3.632-2.93 38.29 38.29 0 0 1-1.014-.954l-.206-.207-.171-.173a12.085 12.085 0 0 1-.16-.166l-.078-.084-.04-.041-.02-.021-.025.011a5.785 5.785 0 0 1-.417.189l-.544.163a30.621 30.621 0 0 1-3.333.784 28.541 28.541 0 0 1-3.419.396c-1.854.093-2.813-.014-2.813-.07ZM81.418 9.093c-.071.034-.338-.289-.782-.927-.464-.627-1.097-1.585-2.061-2.692a15.533 15.533 0 0 0-1.089-1.131c-.22-.173-.433-.366-.668-.544a7.433 7.433 0 0 1-.356-.271l-.178-.142-.188-.135c-.195-.254-.516-.369-.848-.45a3.546 3.546 0 0 1-.475-.166 1.048 1.048 0 0 1-.419-.287c-.073-.043-.148-.09-.226-.127a6.614 6.614 0 0 0-.76-.264 17.928 17.928 0 0 0-.55-.099 19.926 19.926 0 0 0-.277-.047 25.849 25.849 0 0 0-.288-.023 4.99 4.99 0 0 1-.575-.086c-.193-.028-.391-.058-.59-.085a3.583 3.583 0 0 0-1.239.006 1.59 1.59 0 0 1-.625.117c-.208-.005-.422-.045-.642-.082a2.76 2.76 0 0 0-.655-.005 1.35 1.35 0 0 0-.323.079.81.81 0 0 0-.296.181c-.413.162-.845.252-1.262.419l-.642.217c-.209.086-.421.176-.633.265a2.325 2.325 0 0 0-.357.071c-.112.04-.222.086-.326.139a3.903 3.903 0 0 0-.605.37c-.357.313-.713.627-1.043.97a2.812 2.812 0 0 0-.355.153 1.36 1.36 0 0 0-.32.2 4.372 4.372 0 0 0-.535.51c-.161.188-.276.41-.397.625a8.484 8.484 0 0 0-.168.329c-.045.118-.083.237-.123.357-.24.143-.472.303-.642.5a3.092 3.092 0 0 0-.417.649c-.115.23-.152.492-.188.747-.013.13-.024.26-.024.392.01.134.03.271.057.407a9.82 9.82 0 0 1-.103.362c-.038.122-.083.241-.103.366-.053.25-.11.499-.163.75-.046.252-.046.514-.053.772.002.132 0 .261.015.392.021.134.049.267.082.402.066 1.074.299 2.147.486 3.261.606 1.024.954 2.086 1.144 3.284.806.965 1.232 2.08 1.696 3.249.459 1.182 1.615 1.99 2.131 3.192.752 1.071 1.653 2.064 2.475 3.137.748 1.126 1.531 2.272 2.741 3.093 1.021.974 2.094 1.918 2.953 3.068 1.305.772 2.208 1.902 3.117 3.062 1.108.979 1.985 2.187 3.239 3.072.953.976 2.732 2.323 2.418 2.256a.548.548 0 0 0 .192-.069l.058-.033.017-.01.055-.047.11-.093.429-.376a13.447 13.447 0 0 0 1.562-1.633c.915-1.196 2.25-1.987 3.24-3.073 1.329-.784 2.009-2.124 3.118-3.059.982-1.046 2.153-1.918 2.953-3.067.896-1.072 1.745-2.146 2.741-3.094.412-1.36 1.803-2.008 2.474-3.137.974-.934 1.443-2.147 2.132-3.192.534-1.119 1.446-2.062 1.696-3.249.512-1.086.662-2.241 1.144-3.285-.01-.289.033-.565.097-.836a7.6 7.6 0 0 1 .206-.805c.133-.536.277-1.079.183-1.62l.013-.4c-.002-.132-.013-.259-.02-.39-.02-.255-.017-.513-.053-.764-.04-.252-.077-.503-.112-.752-.031-.251-.111-.492-.156-.738a2.24 2.24 0 0 0 .025-.399 2.562 2.562 0 0 0-.073-.373c-.075-.243-.151-.485-.29-.701-.136-.217-.282-.424-.422-.631-.146-.204-.319-.389-.455-.594-.063-.104-.126-.208-.196-.307-.08-.093-.163-.185-.246-.276-.169-.176-.326-.362-.504-.524a5.504 5.504 0 0 1-.507-.506 3.973 3.973 0 0 0-.233-.269 2.942 2.942 0 0 1-.212-.289c-.336-.337-.712-.626-1.076-.926a5.99 5.99 0 0 0-.919-.522 2.907 2.907 0 0 0-.34-.102 2.47 2.47 0 0 1-.598-.336c-.197-.121-.391-.246-.592-.363-.393-.252-.855-.359-1.343-.2l-.326-.049a3.437 3.437 0 0 1-.315-.076c-.21-.055-.416-.139-.627-.195a3.404 3.404 0 0 0-.638-.09c-.214-.001-.424.012-.634.119-.417.187-.821.173-1.222.169-.2-.007-.404-.033-.602-.039a3.963 3.963 0 0 0-.58.036c-.097.014-.192.025-.284.042-.091.022-.183.042-.274.062l-.539.121-.512.161-.253.079c-.083.029-.16.065-.241.097l-.531.218-.495.257c-.08.043-.164.08-.239.127l-.228.144-.444.283c-.559.407-1.062.821-1.489 1.253A19.087 19.087 0 0 0 83.013 7c-.259.337-.467.651-.662.915-.189.266-.351.49-.48.669-.264.359-.429.535-.482.509-.06-.027.018-.302.226-.804.209-.505.567-1.231 1.107-2.149l.461-.714c.158-.254.36-.502.552-.771.193-.271.436-.529.668-.812.12-.141.259-.269.393-.41.139-.135.266-.285.424-.415a10.848 10.848 0 0 1 2.161-1.532c.85-.448 1.834-.791 2.892-1.016.212-.042.425-.099.638-.162.216-.055.436-.1.658-.145a3.022 3.022 0 0 1 1.374.004c.229-.014.469-.005.712-.016l.731-.023A6.731 6.731 0 0 1 95.5.271c.125.026.246.062.363.114a2.909 2.909 0 0 1 1.553.235c.245.102.486.212.725.329.231.132.464.262.707.376.123.054.248.107.367.167l.349.206c.229.141.466.277.695.424.439.325.915.608 1.382.928.128.07.248.147.366.229.119.08.232.17.328.274.2.201.388.416.572.633.183.218.332.464.511.688.086.112.178.225.273.335.088.115.175.23.273.34.447 1.078.971 2.079 1.539 3.174.015.304.088.594.128.893.043.296.106.591.176.889.063.299.093.603.136.91.02.152.04.307.05.461.002.151 0 .302-.007.453a6.996 6.996 0 0 0-.327 1.806c-.03.303-.043.612-.052.923l-.08.936c-.163 1.252-.765 2.411-1.184 3.627-.567 1.163-1.027 2.393-1.759 3.514-.517 1.227-1.21 2.404-2.196 3.395-.702 1.171-1.633 2.216-2.532 3.29-.778 1.162-1.849 2.13-2.788 3.206-.915 1.103-2.274 1.844-2.987 3.15-.991 1.072-2.128 2.031-3.142 3.115-1.111.997-2.238 1.994-3.256 3.105-.698.38-1.28.872-1.812 1.412-.813.85-1.633 1.713-2.458 2.574l-.003.004c-2.559-2.226-3.106-2.815-4.267-3.986a79.467 79.467 0 0 1-3.255-3.106c-1.161-.956-1.992-2.184-3.142-3.116-1.158-.931-1.886-2.204-2.988-3.15-1.062-.981-2.053-2.013-2.788-3.206-.903-1.079-1.437-2.374-2.53-3.29-.868-1.055-2.027-1.979-2.198-3.395-.805-1.09-1.032-2.417-1.759-3.514a4.776 4.776 0 0 0-.191-.953c-.1-.302-.211-.598-.335-.894-.123-.292-.259-.581-.369-.879-.108-.298-.229-.594-.289-.901-.226-1.238-.238-2.463-.462-3.663a4.734 4.734 0 0 1-.067-.454 4.243 4.243 0 0 1 .004-.465c.023-.31.04-.62.106-.921l.211-.894c.028-.148.078-.292.118-.437.043-.144.08-.289.113-.436.01-.152.034-.302.067-.448.046-.143.101-.282.163-.42.13-.272.253-.543.425-.79.17-.25.338-.492.483-.746.146-.251.304-.492.399-.771l.253-.354.273-.336c.185-.219.348-.455.542-.664.198-.207.396-.411.597-.611.098-.102.204-.193.317-.278.113-.088.226-.174.34-.257.223-.577.723-.888 1.219-1.148.259-.117.537-.202.8-.297a9.83 9.83 0 0 0 .389-.144c.13-.045.261-.085.385-.136.254-.093.491-.212.724-.342.237-.115.477-.228.718-.336a2.676 2.676 0 0 1 1.542-.263 1.34 1.34 0 0 1 .349-.186c.12-.047.243-.084.366-.112.248-.056.499-.088.748-.088.251.014.5.042.745.073.242.034.483.053.713.095.462.074.915.031 1.368.057.224.01.449.014.668.049.217.043.432.106.632.197.116-.016.228-.023.338-.017.108.012.214.032.319.059.208.052.408.128.601.21.187.095.368.2.552.286.091.045.183.085.276.119.093.038.185.079.281.106.16.123.324.224.494.311.167.091.328.187.496.269.339.16.651.342.924.56.077.043.155.085.228.133.069.049.139.101.206.15.135.102.265.207.388.314.242.218.436.466.618.707.402.444.758.874 1.051 1.292a18.35 18.35 0 0 1 1.746 2.988c.312.716.439 1.104.368 1.135Z"/>
    <path d="M100.061 13.288c-.16 0-.319-.122-.472-.325a2.525 2.525 0 0 1-.077-.108c-.043-.037-.091-.075-.075-.121.208-.063-.39-.056-.075-.133.085-.058-.01-.1-.089-.144-.08-.043.116-.123-.087-.154-.414.01.433-.185-.083-.162-.119-.041-.096-.106-.093-.171.29-.126-.033-.127-.103-.177.349-.152.169-.188-.103-.185.483-.202.386-.265-.106-.192-.043-.06.119-.193-.123-.193-.06-.059-.176-.096-.12-.202-.346.049-.372-.012-.138-.199-.376.073-.274-.051-.141-.206.145-.164-.359-.005-.147-.208-.029-.081-.168-.102-.163-.204.081-.147.178-.318-.165-.21-.133-.023-.287-.021-.183-.203-.374.152-.283-.012-.183-.21-.113-.025.029-.266-.203-.199-.024-.108-.259-.023-.203-.206.012-.14.01-.284-.219-.187-.243.114-.077-.199-.213-.191.156-.325-.233-.021-.225-.17-.097-.025-.028-.27-.217-.171-.115.001-.233.019-.226-.153-.374.411-.077-.204-.22-.151.043-.245-.175-.051-.223-.138-.123.055-.043-.292-.22-.132-.06-.074-.221.082-.214-.128-.181.219-.069-.26-.217-.112-.074-.028-.154-.036-.208-.114.065-.424-.126-.111-.204-.103-.062-.06-.206.196-.198-.093-.06-.048-.086-.245-.191-.096-.075.04-.007-.621-.184-.086-.08.089-.05-.437-.175-.08-.115.329-.108-.059-.165-.081l-.153-.081c-.447-.206-.738-.428-.738-.651 0-.125.091-.24.273-.344.09-.052.205-.102.339-.148.067-.023.14-.045.22-.067.077-.015.16-.027.248-.04.069-.01.188-.288.221-.026.071.012.193-.196.239-.019.158-.367.18-.048.256-.005.089.001.143.143.273.014.15-.195.15.15.287.022.024.252.131.21.301.038.017.252.21.019.31.063-.033.367.16.167.324.071.161-.086.184.136.327.101.074.107.253.014.335.117.189-.099.34-.103.339.136.168-.04.228.103.338.165.189-.056.213.137.339.178.156.014-.027.45.331.208.141.037.175.2.331.224.07.123.133.247.315.254-.178.372.091.28.314.263.18.019.234.159.283.293a.802.802 0 0 1 .273.292c.179.029.023.304.236.309.225.004.007.302.226.307.175.037.296.114.189.317.07.106-.196.378.176.314.136.058.609-.033.147.316.183.044-.15.313.125.313-.34.261.083.196.106.303-.036.129-.134.267.079.302.225.031-.034.219.066.289.269.022-.246.265.04.278-.028.103.085.166.023.269.579-.043.044.167.016.252-.057.092.407.089-.005.239.437.003.082.14-.024.224-.113.085.203.111-.027.206.313.028-.147.141-.035.187-.189.075-.002.112-.052.17.072.045.05.097-.06.151-.02.045-.04.09-.063.13-.128.241-.276.366-.436.366Z"/>
  </g>
</svg>
